<svg width="49" height="66" viewBox="0 0 49 66" fill="none" xmlns="http://www.w3.org/2000/svg">
<path fill-rule="evenodd" clip-rule="evenodd" d="M9.64795 38.7086L14.5987 21.498H34.4017L39.3517 38.7086H9.64795Z" fill="#EED9C3"/>
<path d="M30.8505 31.6133C31.6233 31.6133 32.2498 30.9931 32.2498 30.228C32.2498 29.463 31.6233 28.8428 30.8505 28.8428C30.0777 28.8428 29.4512 29.463 29.4512 30.228C29.4512 30.9931 30.0777 31.6133 30.8505 31.6133Z" fill="#353535"/>
<path fill-rule="evenodd" clip-rule="evenodd" d="M21.5916 28.6519C21.5916 28.1679 21.1956 27.7764 20.7073 27.7764H16.5352C16.0476 27.7764 15.6509 28.1679 15.6509 28.6519V31.3633C15.6509 32.0895 16.2449 32.6776 16.977 32.6776H18.496C19.3155 32.678 20.1021 32.3552 20.6851 31.7792C20.972 31.4959 21.1998 31.1585 21.3554 30.7866C21.511 30.4146 21.5913 30.0155 21.5916 29.6123V28.6519Z" fill="#6AE0FA"/>
<path fill-rule="evenodd" clip-rule="evenodd" d="M44.0491 19.1034L39.0991 24.0047V19.1034L45.2874 14.2021L44.0491 19.1034Z" fill="#F92DB0"/>
<path fill-rule="evenodd" clip-rule="evenodd" d="M45.2869 14.453L39.0986 19.3543V14.453L46.5251 9.55176L45.2869 14.453Z" fill="#E2199B"/>
<path fill-rule="evenodd" clip-rule="evenodd" d="M39.1724 5.04976L49 0L46.525 9.80325L39.1724 14.8523V5.04976Z" fill="#D5088C"/>
<path fill-rule="evenodd" clip-rule="evenodd" d="M4.95063 19.1034L9.90139 24.0047V19.1034L3.71387 14.2021L4.95063 19.1034Z" fill="#F92DB0"/>
<path fill-rule="evenodd" clip-rule="evenodd" d="M3.71309 14.453L9.90135 19.3543V14.453L2.47559 9.55176L3.71309 14.453Z" fill="#E2199B"/>
<path fill-rule="evenodd" clip-rule="evenodd" d="M9.72863 4.88648L0 0L2.47501 9.80325L9.72937 14.689L9.72863 4.88648Z" fill="#D5088C"/>
<path fill-rule="evenodd" clip-rule="evenodd" d="M39.3525 14.203C39.3525 14.203 31.926 9.30176 24.5002 9.30176C17.0737 9.30176 9.64795 14.203 9.64795 14.203V28.9068L11.628 32.8276C13.2681 26.5714 18.8121 24.6512 24.0222 28.5499L24.5002 28.9068L24.9775 28.5499C30.1824 24.6557 35.739 26.5995 37.3717 32.8276L39.3517 28.9068V14.203H39.3525Z" fill="#D5088C"/>
<path fill-rule="evenodd" clip-rule="evenodd" d="M19.55 36.2588L15.5892 59.2948L10.1279 55.374L14.5992 38.7094L19.55 36.2588Z" fill="url(#paint0_linear_637_3)"/>
<path fill-rule="evenodd" clip-rule="evenodd" d="M29.4522 36.2588L33.4123 59.2948L38.8735 55.374L34.4023 38.7094L29.4522 36.2588Z" fill="url(#paint1_linear_637_3)"/>
<path fill-rule="evenodd" clip-rule="evenodd" d="M9.64849 28.9072L5.68848 43.611L10.6385 53.4135L14.5985 38.7097L9.64849 28.9072Z" fill="url(#paint2_linear_637_3)"/>
<path fill-rule="evenodd" clip-rule="evenodd" d="M39.353 28.9072L43.313 43.611L38.363 53.4135L34.403 38.7097L39.353 28.9072Z" fill="url(#paint3_linear_637_3)"/>
<path fill-rule="evenodd" clip-rule="evenodd" d="M19.5502 36.2582L15.0952 60.2747L24.5002 65.176L33.9075 60.2747L29.4517 36.2582L24.8704 33.9901L24.501 33.8076L19.5502 36.2582Z" fill="#E6E6E6"/>
<path fill-rule="evenodd" clip-rule="evenodd" d="M26.2746 37.2393H22.8096V38.4657C22.8096 38.9208 22.9921 39.3559 23.3171 39.6773C23.6422 39.9994 24.0818 40.1797 24.5413 40.1797H24.5428C25.0024 40.1797 25.4427 39.9994 25.7678 39.6773C26.0928 39.3559 26.2746 38.9208 26.2746 38.4657V37.2393Z" fill="#353535"/>
<defs>
<linearGradient id="paint0_linear_637_3" x1="14.2664" y1="50.0323" x2="17.569" y2="50.119" gradientUnits="userSpaceOnUse">
<stop stop-color="#E6E6E6"/>
<stop offset="0.56" stop-color="#D8D8D8"/>
<stop offset="1" stop-color="#A1A1A1"/>
</linearGradient>
<linearGradient id="paint1_linear_637_3" x1="34.7354" y1="50.0323" x2="31.4331" y2="50.119" gradientUnits="userSpaceOnUse">
<stop stop-color="#E6E6E6"/>
<stop offset="0.56" stop-color="#D8D8D8"/>
<stop offset="1" stop-color="#A1A1A1"/>
</linearGradient>
<linearGradient id="paint2_linear_637_3" x1="5.93644" y1="42.0014" x2="15.4992" y2="42.3312" gradientUnits="userSpaceOnUse">
<stop stop-color="#E6E6E6"/>
<stop offset="0.56" stop-color="#D8D8D8"/>
<stop offset="1" stop-color="#A1A1A1"/>
</linearGradient>
<linearGradient id="paint3_linear_637_3" x1="43.065" y1="42.0014" x2="33.5023" y2="42.3312" gradientUnits="userSpaceOnUse">
<stop stop-color="#E6E6E6"/>
<stop offset="0.56" stop-color="#D8D8D8"/>
<stop offset="1" stop-color="#A1A1A1"/>
</linearGradient>
</defs>
</svg>
