<svg width="381" height="81" viewBox="0 0 381 81" fill="none" xmlns="http://www.w3.org/2000/svg">
<path d="M43.0298 73.271C39.7994 76.52 35.7437 78.8259 31.2996 79.9403C26.8555 81.0546 22.1916 80.935 17.8104 79.5946C13.4293 78.2541 9.49694 75.7435 6.43719 72.3333C3.37744 68.9231 1.30627 64.7426 0.446875 60.2423C-0.412524 55.7419 -0.0275734 51.0924 1.56025 46.7947C3.14806 42.497 5.87855 38.714 9.45748 35.8535C13.0364 32.9929 17.3281 31.1632 21.8701 30.5615C26.412 29.9598 31.0321 30.6089 35.2324 32.4389H35.2527C38.1974 33.719 40.87 35.5505 43.1265 37.8348L49.6374 44.3472L42.1924 51.7922L35.471 45.0692L35.4881 45.0536C34.2065 43.7939 32.7042 42.7805 31.0561 42.0641V42.0563C28.612 40.9936 25.9242 40.6176 23.2823 40.969C20.6404 41.3203 18.1444 42.3856 16.0629 44.0502C13.9815 45.7148 12.3936 47.9156 11.4701 50.4157C10.5466 52.9158 10.3225 55.6204 10.822 58.2383C11.3215 60.8563 12.5256 63.2884 14.3047 65.2728C16.0838 67.2573 18.3705 68.7188 20.9186 69.5002C23.4667 70.2815 26.1796 70.353 28.7653 69.7069C31.351 69.0609 33.7115 67.7218 35.5926 65.8338V65.8338L35.8749 65.5516L35.9731 65.4455L63.0833 38.3463C65.4358 35.824 68.2822 33.8126 71.4453 32.4374H71.4656C75.6785 30.6111 80.3111 29.9735 84.8607 30.5937C89.4104 31.2139 93.7032 33.0683 97.2735 35.9557C100.844 38.843 103.555 42.653 105.113 46.9723C106.672 51.2915 107.017 55.955 106.113 60.4567C105.208 64.9585 103.088 69.1265 99.982 72.5085C96.8762 75.8905 92.9035 78.3574 88.495 79.6414C84.0865 80.9254 79.4105 80.9775 74.9744 79.7921C70.5383 78.6067 66.5117 76.229 63.3313 72.917V72.917L57.0933 66.6791L64.5399 59.2325L70.7778 65.4705L70.7685 65.4814C72.5992 67.4304 74.9297 68.8398 77.506 69.5559C80.0823 70.272 82.8058 70.2674 85.3797 69.5427C87.9537 68.8179 90.2794 67.4008 92.1035 65.4456C93.9277 63.4904 95.1804 61.0721 95.7252 58.4542C96.27 55.8363 96.0859 53.119 95.1931 50.5985C94.3003 48.0779 92.733 45.8506 90.6619 44.1592C88.5907 42.4679 86.0952 41.3773 83.447 41.0062C80.7989 40.6351 78.0997 40.9978 75.6434 42.0547V42.0625C73.8037 42.8608 72.1476 44.0286 70.7778 45.4934L70.3692 45.1113L70.7856 45.5246L43.0439 73.282L43.0298 73.271V73.271ZM53.3521 0C60.3942 0.0010968 67.1744 2.67012 72.3276 7.4697C77.4807 12.2693 80.6242 18.843 81.125 25.8672C78.296 25.9042 75.4869 26.3464 72.7833 27.1803C72.066 27.3987 71.358 27.6456 70.6593 27.9211V27.8416C70.6593 23.2506 68.8355 18.8476 65.5892 15.6013C62.3429 12.355 57.94 10.5312 53.349 10.5312C48.758 10.5312 44.355 12.355 41.1087 15.6013C37.8624 18.8476 36.0386 23.2506 36.0386 27.8416V27.9258C35.2184 27.6014 34.3866 27.316 33.5435 27.0696C30.9593 26.3092 28.2835 25.9046 25.5901 25.8672C26.0908 18.8449 29.2327 12.2727 34.3835 7.47342C39.5344 2.67412 46.3119 0.00385636 53.3521 0V0Z" fill="url(#paint0_linear_611_11)"/>
<path d="M148.568 56.528C145.371 56.528 142.481 55.8387 139.9 54.46C137.348 53.0813 135.339 51.1893 133.872 48.784C132.435 46.3493 131.716 43.6213 131.716 40.6C131.716 37.5787 132.435 34.8653 133.872 32.46C135.339 30.0253 137.348 28.1187 139.9 26.74C142.481 25.3613 145.371 24.672 148.568 24.672C151.765 24.672 154.64 25.3613 157.192 26.74C159.744 28.1187 161.753 30.0253 163.22 32.46C164.687 34.8653 165.42 37.5787 165.42 40.6C165.42 43.6213 164.687 46.3493 163.22 48.784C161.753 51.1893 159.744 53.0813 157.192 54.46C154.64 55.8387 151.765 56.528 148.568 56.528ZM148.568 50.456C150.387 50.456 152.029 50.0453 153.496 49.224C154.963 48.3733 156.107 47.2 156.928 45.704C157.779 44.208 158.204 42.5067 158.204 40.6C158.204 38.6933 157.779 36.992 156.928 35.496C156.107 34 154.963 32.8413 153.496 32.02C152.029 31.1693 150.387 30.744 148.568 30.744C146.749 30.744 145.107 31.1693 143.64 32.02C142.173 32.8413 141.015 34 140.164 35.496C139.343 36.992 138.932 38.6933 138.932 40.6C138.932 42.5067 139.343 44.208 140.164 45.704C141.015 47.2 142.173 48.3733 143.64 49.224C145.107 50.0453 146.749 50.456 148.568 50.456ZM170.777 25.2H184.769C188.113 25.2 191.061 25.8453 193.613 27.136C196.194 28.3973 198.189 30.1867 199.597 32.504C201.034 34.8213 201.753 37.52 201.753 40.6C201.753 43.68 201.034 46.3787 199.597 48.696C198.189 51.0133 196.194 52.8173 193.613 54.108C191.061 55.3693 188.113 56 184.769 56H170.777V25.2ZM184.417 50.148C187.497 50.148 189.946 49.2973 191.765 47.596C193.613 45.8653 194.537 43.5333 194.537 40.6C194.537 37.6667 193.613 35.3493 191.765 33.648C189.946 31.9173 187.497 31.052 184.417 31.052H177.905V50.148H184.417ZM207.129 25.2H214.257V56H207.129V25.2ZM249.814 25.2V56H243.962L228.606 37.3V56H221.566V25.2H227.462L242.774 43.9V25.2H249.814ZM285.349 25.2V56H278.221V43.372H264.229V56H257.101V25.2H264.229V37.344H278.221V25.2H285.349ZM307.552 56.528C304.355 56.528 301.466 55.8387 298.884 54.46C296.332 53.0813 294.323 51.1893 292.856 48.784C291.419 46.3493 290.7 43.6213 290.7 40.6C290.7 37.5787 291.419 34.8653 292.856 32.46C294.323 30.0253 296.332 28.1187 298.884 26.74C301.466 25.3613 304.355 24.672 307.552 24.672C310.75 24.672 313.624 25.3613 316.176 26.74C318.728 28.1187 320.738 30.0253 322.204 32.46C323.671 34.8653 324.404 37.5787 324.404 40.6C324.404 43.6213 323.671 46.3493 322.204 48.784C320.738 51.1893 318.728 53.0813 316.176 54.46C313.624 55.8387 310.75 56.528 307.552 56.528ZM307.552 50.456C309.371 50.456 311.014 50.0453 312.48 49.224C313.947 48.3733 315.091 47.2 315.912 45.704C316.763 44.208 317.188 42.5067 317.188 40.6C317.188 38.6933 316.763 36.992 315.912 35.496C315.091 34 313.947 32.8413 312.48 32.02C311.014 31.1693 309.371 30.744 307.552 30.744C305.734 30.744 304.091 31.1693 302.624 32.02C301.158 32.8413 299.999 34 299.148 35.496C298.327 36.992 297.916 38.6933 297.916 40.6C297.916 42.5067 298.327 44.208 299.148 45.704C299.999 47.2 301.158 48.3733 302.624 49.224C304.091 50.0453 305.734 50.456 307.552 50.456ZM339.881 56.528C337.447 56.528 335.085 56.2053 332.797 55.56C330.539 54.8853 328.72 54.02 327.341 52.964L329.761 47.596C331.081 48.564 332.651 49.3413 334.469 49.928C336.288 50.5147 338.107 50.808 339.925 50.808C341.949 50.808 343.445 50.5147 344.413 49.928C345.381 49.312 345.865 48.5053 345.865 47.508C345.865 46.7747 345.572 46.1733 344.985 45.704C344.428 45.2053 343.695 44.8093 342.785 44.516C341.905 44.2227 340.703 43.9 339.177 43.548C336.831 42.9907 334.909 42.4333 333.413 41.876C331.917 41.3187 330.627 40.424 329.541 39.192C328.485 37.96 327.957 36.3173 327.957 34.264C327.957 32.4747 328.441 30.8613 329.409 29.424C330.377 27.9573 331.829 26.7987 333.765 25.948C335.731 25.0973 338.121 24.672 340.937 24.672C342.903 24.672 344.824 24.9067 346.701 25.376C348.579 25.8453 350.221 26.52 351.629 27.4L349.429 32.812C346.584 31.1987 343.739 30.392 340.893 30.392C338.899 30.392 337.417 30.7147 336.449 31.36C335.511 32.0053 335.041 32.856 335.041 33.912C335.041 34.968 335.584 35.76 336.669 36.288C337.784 36.7867 339.471 37.2853 341.729 37.784C344.076 38.3413 345.997 38.8987 347.493 39.456C348.989 40.0133 350.265 40.8933 351.321 42.096C352.407 43.2987 352.949 44.9267 352.949 46.98C352.949 48.74 352.451 50.3533 351.453 51.82C350.485 53.2573 349.019 54.4013 347.053 55.252C345.088 56.1027 342.697 56.528 339.881 56.528ZM363.77 31.008H353.914V25.2H380.754V31.008H370.898V56H363.77V31.008Z" fill="white"/>
<defs>
<linearGradient id="paint0_linear_611_11" x1="-2.80667" y1="85.8218" x2="108.603" y2="13.2354" gradientUnits="userSpaceOnUse">
<stop offset="0.14" stop-color="#3A9BEB"/>
<stop offset="0.23" stop-color="#5BC6F3"/>
<stop offset="0.4" stop-color="#6EE8FC"/>
<stop offset="0.63" stop-color="#8167F6"/>
<stop offset="0.92" stop-color="#D5088C"/>
<stop offset="1" stop-color="#A420AA"/>
</linearGradient>
</defs>
</svg>
