<svg width="156" height="66" viewBox="0 0 156 66" fill="none" xmlns="http://www.w3.org/2000/svg">
<path d="M64.624 19.416L64.336 19.448H63.152L63.088 19.672L62.896 20.632L62.768 20.824L61.04 25.144L61.2 25.496L60.624 25.912L58.896 30.104L58.64 30.264L58.704 32.28L59.472 33.912L60.624 36.632L61.584 38.616H61.936L61.84 39.16L62.96 41.944L62.992 43L65.904 43.032L65.968 42.68L66.352 41.656L68.08 37.56L68.816 36.024L68.848 35.512L69.104 35.192L70.672 32.024L70.768 30.264L69.68 27.896L68.816 25.976H68.496L68.336 25.112L66.704 21.112L66.064 19.352L64.624 19.416ZM64.688 38.936L63.28 35.256L62.64 33.944L62 33.496L62.32 33.112L62.032 32.184L61.616 31.128L61.584 30.744L62.64 27.992L62.416 27.48L62.864 27.352L64.624 22.712L64.816 23.32L65.552 25.272L66.128 25.624L65.84 26.008L67.088 29.24L67.472 30.328L67.728 31.128L66.16 34.968L66.192 35.544H66.224L65.84 35.928L64.816 39.288L64.688 38.936ZM78.7685 39.96L79.8885 37.688L83.1845 32.632L83.7605 31.672L83.7285 29.336L83.1525 28.6L83.1845 28.664L80.7525 25.432L79.9205 23.96L78.8005 22.84L78.4485 21.784L76.4645 19.064L74.7685 19.576L73.3925 19.992L73.4245 21.176L73.5205 22.84L73.8405 23.256L73.5205 23.864L73.5525 32.248L73.7445 33.496L73.5525 40.664V40.632L73.4885 42.776L75.5685 43.064L76.6245 43.352L78.7685 39.96ZM76.4005 27.992L76.3045 23.352L76.4965 23.576L79.6645 28.664L80.3045 29.176L80.4325 29.944L81.0085 30.808L80.4325 31.736L79.3765 33.496L78.0325 36.088L78.2885 36.376L77.7125 36.664L76.3045 38.936L76.2725 39L76.3045 37.272L76.4325 30.936L75.9205 29.432L76.4005 27.992ZM86.656 29.08L86.56 30.84L86.464 31.832V37.816V38.968L86.848 39.512L86.464 40.152L86.016 43L87.488 43.032L88.16 43.064L89.568 42.616L89.6 41.432L89.536 40.824L89.472 40.344V31.48L89.12 31.256L89.408 30.584L89.344 29.784L89.216 28.536L89.312 26.904L89.408 22.712L89.568 21.912L89.728 19.576L87.648 19.448L86.144 19.544L86.304 21.144L86.592 21.304L86.336 21.88L86.432 28.28L86.656 29.08ZM104.518 40.184V39.16L104.294 32.152L103.942 31.096L104.198 29.752L104.518 21.88L104.582 19.704L103.27 19.48L101.414 19.512V22.072L101.734 22.52L101.414 23.512V26.264L100.358 24.536L100.102 24.408L99.302 23.128L96.422 19.16L93.894 19.864V21.528L94.022 24.856L94.15 26.68L94.022 33.336L94.31 33.976L94.054 34.904L93.862 39.448V39.992L93.958 40.28L93.734 42.84L95.11 43.096L96.998 43.032L97.062 40.984L96.966 40.536L96.998 37.208L96.71 35.992L96.87 34.84L96.934 27.544L96.55 27.128L96.518 27.064L96.966 25.912V24.184L97.798 25.336L99.11 27.16L100.038 28.28L100.486 28.984L100.934 29.464L101.446 30.328L101.478 33.656L101.574 34.264L101.478 34.424L101.446 37.496L101.478 40.536L101.446 43.032L102.534 43.096L104.294 43.064L104.71 41.976L104.518 40.184ZM108.832 37.656L108.896 39.672L109.344 40.152L108.832 40.76L108.736 42.904L110.752 43.096L112.064 43.032L112.096 41.848L112 40.408L111.808 38.712L111.84 38.616L112 33.048L114.496 31.992H114.528L116.384 31.576L116.352 32.152L116.448 32.6L116.384 37.528L116.864 38.04L116.544 38.328L116.32 41.912L116.736 43.032H118.592L119.776 42.968L119.712 41.208L119.488 40.408L119.424 36.312L119.36 30.584L119.296 29.944L119.2 28.504L119.36 25.496L119.072 24.568L119.392 24.152L119.424 22.936V22.968L119.616 21.144L119.712 19.544L117.888 19.48L116.704 19.448L116.224 20.376L116.384 21.656L116.448 24.536L116.544 27.448L116.416 28.312L116.064 28.472L115.456 28.76L114.144 29.336L113.856 29.688L113.344 29.496L112 29.976L111.936 30.008L111.648 26.904L111.776 24.792L111.424 24.504L111.808 23.896L111.968 21.944L112.096 19.64L109.344 19.288L108.576 19.8L108.8 21.784L108.704 22.424L108.8 24.536L109.024 26.52L108.896 29.656L109.12 33.272L108.832 37.656ZM128.28 19.416L127.992 19.448H126.808L126.744 19.672L126.552 20.632L126.424 20.824L124.696 25.144L124.856 25.496L124.28 25.912L122.552 30.104L122.296 30.264L122.36 32.28L123.128 33.912L124.28 36.632L125.24 38.616H125.592L125.496 39.16L126.616 41.944L126.648 43L129.56 43.032L129.624 42.68L130.008 41.656L131.736 37.56L132.472 36.024L132.504 35.512L132.76 35.192L134.328 32.024L134.424 30.264L133.336 27.896L132.472 25.976H132.152L131.992 25.112L130.36 21.112L129.72 19.352L128.28 19.416ZM128.344 38.936L126.936 35.256L126.296 33.944L125.656 33.496L125.976 33.112L125.688 32.184L125.272 31.128L125.24 30.744L126.296 27.992L126.072 27.48L126.52 27.352L128.28 22.712L128.472 23.32L129.208 25.272L129.784 25.624L129.496 26.008L130.744 29.24L131.128 30.328L131.384 31.128L129.816 34.968L129.848 35.544H129.88L129.496 35.928L128.472 39.288L128.344 38.936ZM139.232 37.304L139.296 37.656L138.4 38.072C138.208 38.392 138.048 38.68 137.856 39C137.568 39.448 137.344 39.8 137.024 40.248L136.416 40.792L135.936 41.976L138.56 43.608L139.424 42.552L139.776 41.528L139.744 41.656C139.84 41.464 139.936 41.208 140.064 40.984L141.344 39.256L143.072 37.144L144.224 35.256L144.16 32.76L143.296 32.12L140.32 29.336L139.808 29.016L139.2 28.152L138.592 27.416L139.552 26.136L139.616 25.912L139.936 25.464L141.76 23.32L142.048 22.744L142.88 21.912L143.744 20.632L141.856 19.128L140.896 19.032L140.128 20.312C140.096 20.408 140.224 20.568 140.16 20.696L139.52 21.112L138.688 22.232L138.752 22.584L137.12 24.472L135.552 26.712L135.584 28.728L137.12 30.232L139.584 32.504L140.224 32.792L141.312 34.104L139.232 37.304ZM152.182 19.512L150.71 19.608C150.262 19.608 149.846 19.608 149.366 19.576C149.11 19.576 148.822 19.8 148.63 19.8L148.022 19.544L144.918 19.384L144.822 22.008L145.206 22.392L147.158 22.328C147.254 22.328 147.446 22.296 147.67 22.232L147.83 22.072L148.534 22.168L148.726 23.48L148.598 25.528L148.79 27.032L148.63 33.56L148.47 38.072L148.758 38.392L148.278 40.408V42.872L149.974 43.128L150.87 42.968L151.798 42.456L151.542 40.184V34.168L151.158 33.56L151.19 33.528L151.478 31.608L151.446 29.144V28.6C151.446 28.376 151.414 28.088 151.414 27.832C151.382 27.64 151.382 26.84 151.382 26.552L151.446 24.184L151.318 23.48L151.51 22.136H152.502L153.462 22.2L153.782 22.296H155.222L155.318 20.792L155.126 19.448L152.182 19.512Z" fill="white"/>
<path d="M64.624 19.416L64.6151 19.2158L64.6019 19.2172L64.624 19.416ZM64.336 19.448V19.648H64.3471L64.3581 19.6468L64.336 19.448ZM63.152 19.448V19.248H63.0011L62.9597 19.3931L63.152 19.448ZM63.088 19.672L62.8957 19.6171L62.8935 19.6248L62.8919 19.6328L63.088 19.672ZM62.896 20.632L63.0624 20.7429L63.0844 20.71L63.0921 20.6712L62.896 20.632ZM62.768 20.824L62.6016 20.7131L62.59 20.7304L62.5823 20.7497L62.768 20.824ZM61.04 25.144L60.8543 25.0697L60.8226 25.149L60.8579 25.2268L61.04 25.144ZM61.2 25.496L61.3171 25.6581L61.4498 25.5623L61.3821 25.4132L61.2 25.496ZM60.624 25.912L60.5069 25.7499L60.4608 25.7832L60.4391 25.8358L60.624 25.912ZM58.896 30.104L59.002 30.2736L59.0564 30.2396L59.0809 30.1802L58.896 30.104ZM58.64 30.264L58.534 30.0944L58.4365 30.1554L58.4401 30.2703L58.64 30.264ZM58.704 32.28L58.5041 32.2863L58.5054 32.3277L58.523 32.3652L58.704 32.28ZM59.472 33.912L59.6563 33.8339L59.653 33.8268L59.472 33.912ZM60.624 36.632L60.4396 36.7101L60.444 36.7191L60.624 36.632ZM61.584 38.616L61.404 38.7031L61.4586 38.816H61.584V38.616ZM61.936 38.616L62.133 38.6508L62.1744 38.416H61.936V38.616ZM61.84 39.16L61.643 39.1252L61.6331 39.1816L61.6545 39.2346L61.84 39.16ZM62.96 41.944L63.1599 41.9379L63.1588 41.9024L63.1455 41.8694L62.96 41.944ZM62.992 43L62.7921 43.0061L62.7979 43.1979L62.9898 43.2L62.992 43ZM65.904 43.032L65.9018 43.232L66.0706 43.2338L66.1008 43.0678L65.904 43.032ZM65.968 42.68L65.7807 42.6098L65.7744 42.6266L65.7712 42.6442L65.968 42.68ZM66.352 41.656L66.1676 41.5782L66.1647 41.5858L66.352 41.656ZM68.08 37.56L67.8994 37.4735L67.8957 37.4823L68.08 37.56ZM68.816 36.024L68.9964 36.1104L69.0132 36.0753L69.0156 36.0365L68.816 36.024ZM68.848 35.512L68.6918 35.3871L68.6523 35.4364L68.6484 35.4995L68.848 35.512ZM69.104 35.192L69.2602 35.3169L69.2737 35.3001L69.2832 35.2807L69.104 35.192ZM70.672 32.024L70.8512 32.1127L70.8695 32.0759L70.8717 32.0349L70.672 32.024ZM70.768 30.264L70.9677 30.2749L70.9704 30.2255L70.9497 30.1805L70.768 30.264ZM69.68 27.896L69.4976 27.9781L69.4983 27.9795L69.68 27.896ZM68.816 25.976L68.9984 25.8939L68.9453 25.776H68.816V25.976ZM68.496 25.976L68.2993 26.0124L68.3296 26.176H68.496V25.976ZM68.336 25.112L68.5327 25.0756L68.5289 25.0554L68.5212 25.0364L68.336 25.112ZM66.704 21.112L66.5159 21.1804L66.5188 21.1876L66.704 21.112ZM66.064 19.352L66.252 19.2837L66.2018 19.1457L66.0551 19.1522L66.064 19.352ZM64.688 38.936L64.876 38.8676L64.8748 38.8645L64.688 38.936ZM63.28 35.256L63.4668 35.1845L63.4636 35.1763L63.4598 35.1683L63.28 35.256ZM62.64 33.944L62.8198 33.8563L62.7971 33.8098L62.7547 33.7802L62.64 33.944ZM62 33.496L61.8464 33.368L61.7071 33.5351L61.8853 33.6598L62 33.496ZM62.32 33.112L62.4736 33.24L62.5432 33.1565L62.511 33.0527L62.32 33.112ZM62.032 32.184L62.223 32.1247L62.2208 32.1176L62.2181 32.1107L62.032 32.184ZM61.616 31.128L61.4167 31.1446L61.4191 31.1739L61.4299 31.2013L61.616 31.128ZM61.584 30.744L61.3973 30.6723L61.3809 30.715L61.3847 30.7606L61.584 30.744ZM62.64 27.992L62.8267 28.0636L62.8561 27.987L62.8232 27.9118L62.64 27.992ZM62.416 27.48L62.3611 27.2877L62.1411 27.3506L62.2328 27.5602L62.416 27.48ZM62.864 27.352L62.9189 27.5443L63.0154 27.5167L63.051 27.4229L62.864 27.352ZM64.624 22.712L64.8147 22.6518L64.6413 22.1025L64.437 22.6411L64.624 22.712ZM64.816 23.32L64.625 23.3803L64.6289 23.3906L64.816 23.32ZM65.552 25.272L65.3649 25.3426L65.3891 25.4068L65.4477 25.4427L65.552 25.272ZM66.128 25.624L66.288 25.744L66.42 25.568L66.2323 25.4533L66.128 25.624ZM65.84 26.008L65.68 25.888L65.6135 25.9767L65.6534 26.08L65.84 26.008ZM67.088 29.24L67.2767 29.1734L67.2746 29.168L67.088 29.24ZM67.472 30.328L67.6626 30.267L67.6606 30.2614L67.472 30.328ZM67.728 31.128L67.9132 31.2036L67.9406 31.1363L67.9185 31.067L67.728 31.128ZM66.16 34.968L65.9748 34.8924L65.9578 34.9341L65.9603 34.9791L66.16 34.968ZM66.192 35.544L65.9923 35.5551L66.0028 35.744H66.192V35.544ZM66.224 35.544L66.3654 35.6854L66.7068 35.344H66.224V35.544ZM65.84 35.928L65.6986 35.7866L65.6633 35.8219L65.6487 35.8697L65.84 35.928ZM64.816 39.288L64.628 39.3563L64.8327 39.9192L65.0073 39.3463L64.816 39.288ZM64.6019 19.2172L64.3139 19.2492L64.3581 19.6468L64.6461 19.6148L64.6019 19.2172ZM64.336 19.248H63.152V19.648H64.336V19.248ZM62.9597 19.3931L62.8957 19.6171L63.2803 19.7269L63.3443 19.5029L62.9597 19.3931ZM62.8919 19.6328L62.6999 20.5928L63.0921 20.6712L63.2841 19.7112L62.8919 19.6328ZM62.7296 20.5211L62.6016 20.7131L62.9344 20.9349L63.0624 20.7429L62.7296 20.5211ZM62.5823 20.7497L60.8543 25.0697L61.2257 25.2183L62.9537 20.8983L62.5823 20.7497ZM60.8579 25.2268L61.0179 25.5788L61.3821 25.4132L61.2221 25.0612L60.8579 25.2268ZM61.0829 25.3339L60.5069 25.7499L60.7411 26.0741L61.3171 25.6581L61.0829 25.3339ZM60.4391 25.8358L58.7111 30.0278L59.0809 30.1802L60.8089 25.9882L60.4391 25.8358ZM58.79 29.9344L58.534 30.0944L58.746 30.4336L59.002 30.2736L58.79 29.9344ZM58.4401 30.2703L58.5041 32.2863L58.9039 32.2737L58.8399 30.2577L58.4401 30.2703ZM58.523 32.3652L59.291 33.9972L59.653 33.8268L58.885 32.1948L58.523 32.3652ZM59.2878 33.99L60.4398 36.71L60.8082 36.554L59.6562 33.834L59.2878 33.99ZM60.444 36.7191L61.404 38.7031L61.764 38.5289L60.804 36.5449L60.444 36.7191ZM61.584 38.816H61.936V38.416H61.584V38.816ZM61.739 38.5812L61.643 39.1252L62.037 39.1948L62.133 38.6508L61.739 38.5812ZM61.6545 39.2346L62.7745 42.0186L63.1455 41.8694L62.0255 39.0854L61.6545 39.2346ZM62.7601 41.9501L62.7921 43.0061L63.1919 42.9939L63.1599 41.9379L62.7601 41.9501ZM62.9898 43.2L65.9018 43.232L65.9062 42.832L62.9942 42.8L62.9898 43.2ZM66.1008 43.0678L66.1648 42.7158L65.7712 42.6442L65.7072 42.9962L66.1008 43.0678ZM66.1553 42.7502L66.5393 41.7262L66.1647 41.5858L65.7807 42.6098L66.1553 42.7502ZM66.5363 41.7337L68.2643 37.6377L67.8957 37.4823L66.1677 41.5783L66.5363 41.7337ZM68.2604 37.6464L68.9964 36.1104L68.6356 35.9376L67.8996 37.4736L68.2604 37.6464ZM69.0156 36.0365L69.0476 35.5245L68.6484 35.4995L68.6164 36.0115L69.0156 36.0365ZM69.0042 35.6369L69.2602 35.3169L68.9478 35.0671L68.6918 35.3871L69.0042 35.6369ZM69.2832 35.2807L70.8512 32.1127L70.4928 31.9353L68.9248 35.1033L69.2832 35.2807ZM70.8717 32.0349L70.9677 30.2749L70.5683 30.2531L70.4723 32.0131L70.8717 32.0349ZM70.9497 30.1805L69.8617 27.8125L69.4983 27.9795L70.5863 30.3475L70.9497 30.1805ZM69.8624 27.8139L68.9984 25.8939L68.6336 26.0581L69.4976 27.9781L69.8624 27.8139ZM68.816 25.776H68.496V26.176H68.816V25.776ZM68.6927 25.9396L68.5327 25.0756L68.1393 25.1484L68.2993 26.0124L68.6927 25.9396ZM68.5212 25.0364L66.8892 21.0364L66.5188 21.1876L68.1508 25.1876L68.5212 25.0364ZM66.892 21.0437L66.252 19.2837L65.876 19.4203L66.516 21.1803L66.892 21.0437ZM66.0551 19.1522L64.6151 19.2162L64.6329 19.6158L66.0729 19.5518L66.0551 19.1522ZM64.8748 38.8645L63.4668 35.1845L63.0932 35.3275L64.5012 39.0075L64.8748 38.8645ZM63.4598 35.1683L62.8198 33.8563L62.4602 34.0317L63.1002 35.3437L63.4598 35.1683ZM62.7547 33.7802L62.1147 33.3322L61.8853 33.6598L62.5253 34.1078L62.7547 33.7802ZM62.1536 33.624L62.4736 33.24L62.1664 32.984L61.8464 33.368L62.1536 33.624ZM62.511 33.0527L62.223 32.1247L61.841 32.2433L62.129 33.1713L62.511 33.0527ZM62.2181 32.1107L61.8021 31.0547L61.4299 31.2013L61.8459 32.2573L62.2181 32.1107ZM61.8153 31.1114L61.7833 30.7274L61.3847 30.7606L61.4167 31.1446L61.8153 31.1114ZM61.7707 30.8156L62.8267 28.0636L62.4533 27.9203L61.3973 30.6723L61.7707 30.8156ZM62.8232 27.9118L62.5992 27.3998L62.2328 27.5602L62.4568 28.0722L62.8232 27.9118ZM62.4709 27.6723L62.9189 27.5443L62.8091 27.1597L62.3611 27.2877L62.4709 27.6723ZM63.051 27.4229L64.811 22.7829L64.437 22.6411L62.677 27.2811L63.051 27.4229ZM64.4333 22.7722L64.6253 23.3802L65.0067 23.2598L64.8147 22.6518L64.4333 22.7722ZM64.6289 23.3906L65.3649 25.3426L65.7391 25.2014L65.0031 23.2494L64.6289 23.3906ZM65.4477 25.4427L66.0237 25.7947L66.2323 25.4533L65.6563 25.1013L65.4477 25.4427ZM65.968 25.504L65.68 25.888L66 26.128L66.288 25.744L65.968 25.504ZM65.6534 26.08L66.9014 29.312L67.2746 29.168L66.0266 25.936L65.6534 26.08ZM66.8994 29.3066L67.2834 30.3946L67.6606 30.2614L67.2766 29.1734L66.8994 29.3066ZM67.2815 30.389L67.5375 31.189L67.9185 31.067L67.6625 30.267L67.2815 30.389ZM67.5428 31.0524L65.9748 34.8924L66.3452 35.0436L67.9132 31.2036L67.5428 31.0524ZM65.9603 34.9791L65.9923 35.5551L66.3917 35.5329L66.3597 34.9569L65.9603 34.9791ZM66.192 35.744H66.224V35.344H66.192V35.744ZM66.0826 35.4026L65.6986 35.7866L65.9814 36.0694L66.3654 35.6854L66.0826 35.4026ZM65.6487 35.8697L64.6247 39.2297L65.0073 39.3463L66.0313 35.9863L65.6487 35.8697ZM65.004 39.2197L64.876 38.8677L64.5 39.0043L64.628 39.3563L65.004 39.2197ZM78.7685 39.96L78.9376 40.0669L78.9432 40.0579L78.9479 40.0484L78.7685 39.96ZM79.8885 37.688L79.721 37.5788L79.7144 37.5888L79.7091 37.5996L79.8885 37.688ZM83.1845 32.632L83.3522 32.7413L83.356 32.7349L83.1845 32.632ZM83.7605 31.672L83.932 31.7749L83.9613 31.7261L83.9605 31.6693L83.7605 31.672ZM83.7285 29.336L83.9285 29.3333L83.9276 29.2658L83.886 29.2127L83.7285 29.336ZM83.1525 28.6L83.31 28.4767L82.9736 28.6894L83.1525 28.6ZM83.1845 28.664L83.0247 28.7843L83.3634 28.5746L83.1845 28.664ZM80.7525 25.432L80.5784 25.5304L80.5848 25.5418L80.5927 25.5523L80.7525 25.432ZM79.9205 23.96L80.0946 23.8616L80.0812 23.8379L80.0619 23.8186L79.9205 23.96ZM78.8005 22.84L78.6108 22.9032L78.6257 22.948L78.6591 22.9814L78.8005 22.84ZM78.4485 21.784L78.6382 21.7208L78.6284 21.6913L78.6101 21.6661L78.4485 21.784ZM76.4645 19.064L76.6261 18.9461L76.5425 18.8315L76.4067 18.8725L76.4645 19.064ZM74.7685 19.576L74.7107 19.3845L74.7106 19.3846L74.7685 19.576ZM73.3925 19.992L73.3346 19.8006L73.1884 19.8447L73.1926 19.9974L73.3925 19.992ZM73.4245 21.176L73.2245 21.1814L73.2248 21.1875L73.4245 21.176ZM73.5205 22.84L73.3208 22.8515L73.3244 22.9131L73.362 22.9619L73.5205 22.84ZM73.8405 23.256L74.0175 23.3491L74.0772 23.2357L73.999 23.1341L73.8405 23.256ZM73.5205 23.864L73.3435 23.7708L73.3203 23.8149L73.3205 23.8648L73.5205 23.864ZM73.5525 32.248L73.3525 32.2488L73.3526 32.2637L73.3548 32.2784L73.5525 32.248ZM73.7445 33.496L73.9444 33.5014L73.9449 33.4834L73.9422 33.4656L73.7445 33.496ZM73.5525 40.664H73.3525L73.7524 40.6694L73.5525 40.664ZM73.5525 40.632H73.7525L73.3526 40.626L73.5525 40.632ZM73.4885 42.776L73.2886 42.77L73.2832 42.9495L73.4611 42.9741L73.4885 42.776ZM75.5685 43.064L75.6211 42.871L75.6087 42.8677L75.5959 42.8659L75.5685 43.064ZM76.6245 43.352L76.5719 43.545L76.7145 43.5839L76.7936 43.4589L76.6245 43.352ZM76.4005 27.992L76.5902 28.0552L76.6012 28.0224L76.6005 27.9879L76.4005 27.992ZM76.3045 23.352L76.4564 23.2218L76.093 22.7979L76.1045 23.3561L76.3045 23.352ZM76.4965 23.576L76.6663 23.4703L76.6582 23.4574L76.6484 23.4458L76.4965 23.576ZM79.6645 28.664L79.4947 28.7697L79.5128 28.7988L79.5396 28.8202L79.6645 28.664ZM80.3045 29.176L80.5018 29.1431L80.4892 29.0676L80.4294 29.0198L80.3045 29.176ZM80.4325 29.944L80.2352 29.9769L80.2423 30.0192L80.2661 30.0549L80.4325 29.944ZM81.0085 30.808L81.1784 30.9135L81.2463 30.8041L81.1749 30.6971L81.0085 30.808ZM80.4325 31.736L80.2626 31.6305L80.261 31.6331L80.4325 31.736ZM79.3765 33.496L79.2047 33.3929L79.1989 33.4039L79.3765 33.496ZM78.0325 36.088L77.8549 35.9959L77.7916 36.1181L77.883 36.2209L78.0325 36.088ZM78.2885 36.376L78.3779 36.5549L78.6114 36.4382L78.438 36.2431L78.2885 36.376ZM77.7125 36.664L77.6231 36.4851L77.5724 36.5105L77.5425 36.5586L77.7125 36.664ZM76.3045 38.936L76.1345 38.8306L76.1297 38.8384L76.1256 38.8466L76.3045 38.936ZM76.2725 39L76.0725 38.9963L76.4514 39.0894L76.2725 39ZM76.3045 37.272L76.1045 37.268L76.1045 37.2683L76.3045 37.272ZM76.4325 30.936L76.6325 30.94L76.6332 30.9049L76.6218 30.8715L76.4325 30.936ZM75.9205 29.432L75.7308 29.3688L75.7095 29.4327L75.7312 29.4965L75.9205 29.432ZM78.9479 40.0484L80.0679 37.7764L79.7091 37.5996L78.5891 39.8716L78.9479 40.0484ZM80.056 37.7972L83.352 32.7412L83.017 32.5228L79.721 37.5788L80.056 37.7972ZM83.356 32.7349L83.932 31.7749L83.589 31.5691L83.013 32.5291L83.356 32.7349ZM83.9605 31.6693L83.9285 29.3333L83.5285 29.3387L83.5605 31.6747L83.9605 31.6693ZM83.886 29.2127L83.31 28.4767L82.995 28.7233L83.571 29.4593L83.886 29.2127ZM82.9736 28.6894L83.0056 28.7534L83.3634 28.5746L83.3314 28.5106L82.9736 28.6894ZM83.3443 28.5437L80.9123 25.3117L80.5927 25.5523L83.0247 28.7843L83.3443 28.5437ZM80.9266 25.3336L80.0946 23.8616L79.7464 24.0584L80.5784 25.5304L80.9266 25.3336ZM80.0619 23.8186L78.9419 22.6986L78.6591 22.9814L79.7791 24.1014L80.0619 23.8186ZM78.9902 22.7768L78.6382 21.7208L78.2588 21.8472L78.6108 22.9032L78.9902 22.7768ZM78.6101 21.6661L76.6261 18.9461L76.3029 19.1819L78.2869 21.9019L78.6101 21.6661ZM76.4067 18.8725L74.7107 19.3845L74.8263 19.7675L76.5223 19.2555L76.4067 18.8725ZM74.7106 19.3846L73.3346 19.8006L73.4504 20.1834L74.8264 19.7674L74.7106 19.3846ZM73.1926 19.9974L73.2246 21.1814L73.6244 21.1706L73.5924 19.9866L73.1926 19.9974ZM73.2248 21.1875L73.3208 22.8515L73.7202 22.8285L73.6242 21.1645L73.2248 21.1875ZM73.362 22.9619L73.682 23.3779L73.999 23.1341L73.679 22.7181L73.362 22.9619ZM73.6635 23.1628L73.3435 23.7708L73.6975 23.9571L74.0175 23.3491L73.6635 23.1628ZM73.3205 23.8648L73.3525 32.2488L73.7525 32.2472L73.7205 23.8632L73.3205 23.8648ZM73.3548 32.2784L73.5468 33.5264L73.9422 33.4656L73.7502 32.2176L73.3548 32.2784ZM73.5446 33.4906L73.3526 40.6586L73.7524 40.6694L73.9444 33.5014L73.5446 33.4906ZM73.7525 40.664V40.632H73.3525V40.664H73.7525ZM73.3526 40.626L73.2886 42.77L73.6884 42.782L73.7524 40.638L73.3526 40.626ZM73.4611 42.9741L75.5411 43.2621L75.5959 42.8659L73.5159 42.5779L73.4611 42.9741ZM75.5159 43.257L76.5719 43.545L76.6771 43.159L75.6211 42.871L75.5159 43.257ZM76.7936 43.4589L78.9376 40.0669L78.5994 39.8531L76.4554 43.2451L76.7936 43.4589ZM76.6005 27.9879L76.5045 23.3479L76.1045 23.3561L76.2005 27.9961L76.6005 27.9879ZM76.1526 23.4822L76.3446 23.7062L76.6484 23.4458L76.4564 23.2218L76.1526 23.4822ZM76.3267 23.6817L79.4947 28.7697L79.8343 28.5583L76.6663 23.4703L76.3267 23.6817ZM79.5396 28.8202L80.1796 29.3322L80.4294 29.0198L79.7894 28.5078L79.5396 28.8202ZM80.1072 29.2089L80.2352 29.9769L80.6298 29.9111L80.5018 29.1431L80.1072 29.2089ZM80.2661 30.0549L80.8421 30.9189L81.1749 30.6971L80.5989 29.8331L80.2661 30.0549ZM80.8386 30.7025L80.2626 31.6305L80.6024 31.8415L81.1784 30.9135L80.8386 30.7025ZM80.261 31.6331L79.205 33.3931L79.548 33.5989L80.604 31.8389L80.261 31.6331ZM79.1989 33.4039L77.8549 35.9959L78.2101 36.1801L79.5541 33.5881L79.1989 33.4039ZM77.883 36.2209L78.139 36.5089L78.438 36.2431L78.182 35.9551L77.883 36.2209ZM78.1991 36.1971L77.6231 36.4851L77.8019 36.8429L78.3779 36.5549L78.1991 36.1971ZM77.5425 36.5586L76.1345 38.8306L76.4745 39.0414L77.8825 36.7694L77.5425 36.5586ZM76.1256 38.8466L76.0936 38.9106L76.4514 39.0894L76.4834 39.0254L76.1256 38.8466ZM76.4725 39.0037L76.5045 37.2757L76.1045 37.2683L76.0725 38.9963L76.4725 39.0037ZM76.5045 37.276L76.6325 30.94L76.2325 30.932L76.1045 37.268L76.5045 37.276ZM76.6218 30.8715L76.1098 29.3675L75.7312 29.4965L76.2432 31.0005L76.6218 30.8715ZM76.1102 29.4952L76.5902 28.0552L76.2108 27.9288L75.7308 29.3688L76.1102 29.4952ZM86.656 29.08L86.8557 29.0909L86.8575 29.0579L86.8486 29.0261L86.656 29.08ZM86.56 30.84L86.7592 30.8593L86.7597 30.8509L86.56 30.84ZM86.464 31.832L86.2649 31.8127L86.264 31.8223V31.832H86.464ZM86.464 38.968H86.264V39.0315L86.3006 39.0833L86.464 38.968ZM86.848 39.512L87.0195 39.6149L87.0866 39.5031L87.0114 39.3967L86.848 39.512ZM86.464 40.152L86.2925 40.0491L86.2725 40.0825L86.2664 40.1209L86.464 40.152ZM86.016 43L85.8184 42.9689L85.7829 43.195L86.0117 43.2L86.016 43ZM87.488 43.032L87.4975 42.8322L87.4923 42.832L87.488 43.032ZM88.16 43.064L88.1505 43.2638L88.1864 43.2655L88.2206 43.2546L88.16 43.064ZM89.568 42.616L89.6286 42.8066L89.7641 42.7635L89.7679 42.6214L89.568 42.616ZM89.6 41.432L89.7999 41.4374L89.8003 41.4242L89.7989 41.4111L89.6 41.432ZM89.536 40.824L89.735 40.8031L89.7342 40.7976L89.536 40.824ZM89.472 40.344H89.272V40.3573L89.2738 40.3704L89.472 40.344ZM89.472 31.48H89.672V31.3702L89.5794 31.3113L89.472 31.48ZM89.12 31.256L88.9362 31.1772L88.8692 31.3335L89.0126 31.4247L89.12 31.256ZM89.408 30.584L89.5918 30.6628L89.6113 30.6173L89.6074 30.5681L89.408 30.584ZM89.344 29.784L89.5434 29.768L89.543 29.7636L89.344 29.784ZM89.216 28.536L89.0163 28.5243L89.0154 28.5404L89.017 28.5564L89.216 28.536ZM89.312 26.904L89.5118 26.9158L89.5119 26.9086L89.312 26.904ZM89.408 22.712L89.2119 22.6728L89.2085 22.6899L89.2081 22.7074L89.408 22.712ZM89.568 21.912L89.7641 21.9512L89.7667 21.9386L89.7675 21.9257L89.568 21.912ZM89.728 19.576L89.9275 19.5897L89.9413 19.3887L89.7403 19.3764L89.728 19.576ZM87.648 19.448L87.6603 19.2484L87.6478 19.2476L87.6353 19.2484L87.648 19.448ZM86.144 19.544L86.1313 19.3444L85.9244 19.3576L85.945 19.5639L86.144 19.544ZM86.304 21.144L86.105 21.1639L86.1154 21.268L86.2069 21.3188L86.304 21.144ZM86.592 21.304L86.7748 21.3852L86.8491 21.218L86.6891 21.1292L86.592 21.304ZM86.336 21.88L86.1532 21.7988L86.1354 21.839L86.136 21.883L86.336 21.88ZM86.432 28.28L86.232 28.283L86.2324 28.3089L86.2394 28.3339L86.432 28.28ZM86.4563 29.0691L86.3603 30.8291L86.7597 30.8509L86.8557 29.0909L86.4563 29.0691ZM86.3609 30.8207L86.2649 31.8127L86.6631 31.8513L86.7591 30.8593L86.3609 30.8207ZM86.264 31.832V37.816H86.664V31.832H86.264ZM86.264 37.816V38.968H86.664V37.816H86.264ZM86.3006 39.0833L86.6846 39.6273L87.0114 39.3967L86.6274 38.8527L86.3006 39.0833ZM86.6765 39.4091L86.2925 40.0491L86.6355 40.2549L87.0195 39.6149L86.6765 39.4091ZM86.2664 40.1209L85.8184 42.9689L86.2136 43.0311L86.6616 40.1831L86.2664 40.1209ZM86.0117 43.2L87.4837 43.232L87.4923 42.832L86.0203 42.8L86.0117 43.2ZM87.4785 43.2318L88.1505 43.2638L88.1695 42.8642L87.4975 42.8322L87.4785 43.2318ZM88.2206 43.2546L89.6286 42.8066L89.5074 42.4254L88.0994 42.8734L88.2206 43.2546ZM89.7679 42.6214L89.7999 41.4374L89.4001 41.4266L89.3681 42.6106L89.7679 42.6214ZM89.7989 41.4111L89.7349 40.8031L89.3371 40.8449L89.4011 41.4529L89.7989 41.4111ZM89.7342 40.7976L89.6702 40.3176L89.2738 40.3704L89.3378 40.8504L89.7342 40.7976ZM89.672 40.344V31.48H89.272V40.344H89.672ZM89.5794 31.3113L89.2274 31.0873L89.0126 31.4247L89.3646 31.6487L89.5794 31.3113ZM89.3038 31.3348L89.5918 30.6628L89.2242 30.5052L88.9362 31.1772L89.3038 31.3348ZM89.6074 30.5681L89.5434 29.7681L89.1446 29.7999L89.2086 30.5999L89.6074 30.5681ZM89.543 29.7636L89.415 28.5156L89.017 28.5564L89.145 29.8044L89.543 29.7636ZM89.4157 28.5477L89.5117 26.9157L89.1123 26.8923L89.0163 28.5243L89.4157 28.5477ZM89.5119 26.9086L89.6079 22.7166L89.2081 22.7074L89.1121 26.8994L89.5119 26.9086ZM89.6041 22.7512L89.7641 21.9512L89.3719 21.8728L89.2119 22.6728L89.6041 22.7512ZM89.7675 21.9257L89.9275 19.5897L89.5285 19.5623L89.3685 21.8983L89.7675 21.9257ZM89.7403 19.3764L87.6603 19.2484L87.6357 19.6476L89.7157 19.7756L89.7403 19.3764ZM87.6353 19.2484L86.1313 19.3444L86.1567 19.7436L87.6607 19.6476L87.6353 19.2484ZM85.945 19.5639L86.105 21.1639L86.503 21.1241L86.343 19.5241L85.945 19.5639ZM86.2069 21.3188L86.4949 21.4788L86.6891 21.1292L86.4011 20.9692L86.2069 21.3188ZM86.4092 21.2228L86.1532 21.7988L86.5188 21.9612L86.7748 21.3852L86.4092 21.2228ZM86.136 21.883L86.232 28.283L86.632 28.277L86.536 21.877L86.136 21.883ZM86.2394 28.3339L86.4634 29.1339L86.8486 29.0261L86.6246 28.2261L86.2394 28.3339ZM104.518 40.184H104.318V40.1947L104.319 40.2053L104.518 40.184ZM104.518 39.16H104.718L104.718 39.1536L104.518 39.16ZM104.294 32.152L104.494 32.1456L104.493 32.1164L104.484 32.0888L104.294 32.152ZM103.942 31.096L103.746 31.0586L103.736 31.1098L103.752 31.1592L103.942 31.096ZM104.198 29.752L104.394 29.7894L104.397 29.7749L104.398 29.7601L104.198 29.752ZM104.518 21.88L104.718 21.8881L104.718 21.8859L104.518 21.88ZM104.582 19.704L104.782 19.7099L104.787 19.5361L104.616 19.5069L104.582 19.704ZM103.27 19.48L103.304 19.2829L103.285 19.2797L103.267 19.28L103.27 19.48ZM101.414 19.512L101.411 19.312L101.214 19.3154V19.512H101.414ZM101.414 22.072H101.214V22.1361L101.251 22.1882L101.414 22.072ZM101.734 22.52L101.924 22.5814L101.955 22.4856L101.897 22.4038L101.734 22.52ZM101.414 23.512L101.224 23.4506L101.214 23.4805V23.512H101.414ZM101.414 26.264L101.243 26.3683L101.614 26.9748V26.264H101.414ZM100.358 24.536L100.529 24.4317L100.499 24.3828L100.447 24.3571L100.358 24.536ZM100.102 24.408L99.9324 24.514L99.9622 24.5617L100.013 24.5869L100.102 24.408ZM99.302 23.128L99.472 23.0217L99.4639 23.0105L99.302 23.128ZM96.422 19.16L96.5839 19.0425L96.5022 18.93L96.3683 18.9673L96.422 19.16ZM93.894 19.864L93.8403 19.6713L93.694 19.7121V19.864H93.894ZM93.894 21.528H93.6939L93.6941 21.5357L93.894 21.528ZM94.022 24.856L93.822 24.8637L93.8225 24.87L94.022 24.856ZM94.15 26.68L94.35 26.6838L94.3501 26.6749L94.3495 26.666L94.15 26.68ZM94.022 33.336L93.822 33.3322L93.8212 33.3771L93.8396 33.4181L94.022 33.336ZM94.31 33.976L94.5028 34.0292L94.522 33.9597L94.4924 33.8939L94.31 33.976ZM94.054 34.904L93.8612 34.8508L93.8551 34.8728L93.8542 34.8956L94.054 34.904ZM93.862 39.448L93.662 39.4395V39.448H93.862ZM93.862 39.992H93.662V40.0245L93.6723 40.0552L93.862 39.992ZM93.958 40.28L94.1572 40.2974L94.1609 40.2561L94.1477 40.2168L93.958 40.28ZM93.734 42.84L93.5348 42.8226L93.5189 43.0034L93.6974 43.0366L93.734 42.84ZM95.11 43.096L95.0734 43.2926L95.0949 43.2966L95.1168 43.2959L95.11 43.096ZM96.998 43.032L97.0048 43.2319L97.192 43.2255L97.1979 43.0382L96.998 43.032ZM97.062 40.984L97.2619 40.9902L97.2627 40.9659L97.2576 40.9421L97.062 40.984ZM96.966 40.536L96.766 40.5341L96.7658 40.5562L96.7704 40.5779L96.966 40.536ZM96.998 37.208L97.198 37.2099L97.1982 37.1856L97.1926 37.1619L96.998 37.208ZM96.71 35.992L96.5119 35.9645L96.5067 36.0016L96.5154 36.0381L96.71 35.992ZM96.87 34.84L97.0681 34.8675L97.0699 34.8547L97.07 34.8418L96.87 34.84ZM96.934 27.544L97.134 27.5458L97.1347 27.4665L97.081 27.4083L96.934 27.544ZM96.55 27.128L96.3711 27.2174L96.3838 27.2428L96.403 27.2637L96.55 27.128ZM96.518 27.064L96.3316 26.9915L96.2995 27.0741L96.3391 27.1534L96.518 27.064ZM96.966 25.912L97.1524 25.9845L97.166 25.9495V25.912H96.966ZM96.966 24.184L97.1281 24.0669L96.766 23.5655V24.184H96.966ZM97.798 25.336L97.9604 25.2192L97.9601 25.2189L97.798 25.336ZM99.11 27.16L98.9473 27.2771L98.956 27.2876L99.11 27.16ZM100.038 28.28L100.207 28.1726L100.2 28.162L100.192 28.1524L100.038 28.28ZM100.486 28.984L100.317 29.0914L100.327 29.107L100.34 29.1205L100.486 28.984ZM100.934 29.464L101.106 29.362L101.095 29.3434L101.08 29.3275L100.934 29.464ZM101.446 30.328L101.646 30.3261L101.645 30.2723L101.618 30.226L101.446 30.328ZM101.478 33.656L101.278 33.6579L101.278 33.6726L101.28 33.6872L101.478 33.656ZM101.574 34.264L101.745 34.3669L101.783 34.3046L101.772 34.2328L101.574 34.264ZM101.478 34.424L101.307 34.3211L101.279 34.3676L101.278 34.4219L101.478 34.424ZM101.446 37.496L101.246 37.4939L101.246 37.4981L101.446 37.496ZM101.478 40.536L101.678 40.5386L101.678 40.5339L101.478 40.536ZM101.446 43.032L101.246 43.0294L101.244 43.2204L101.434 43.2317L101.446 43.032ZM102.534 43.096L102.522 43.2957L102.53 43.2961L102.538 43.296L102.534 43.096ZM104.294 43.064L104.298 43.264L104.433 43.2615L104.481 43.1354L104.294 43.064ZM104.71 41.976L104.897 42.0474L104.914 42.0025L104.909 41.9547L104.71 41.976ZM104.718 40.184V39.16H104.318V40.184H104.718ZM104.718 39.1536L104.494 32.1456L104.094 32.1584L104.318 39.1664L104.718 39.1536ZM104.484 32.0888L104.132 31.0328L103.752 31.1592L104.104 32.2152L104.484 32.0888ZM104.138 31.1334L104.394 29.7894L104.002 29.7146L103.746 31.0586L104.138 31.1334ZM104.398 29.7601L104.718 21.8881L104.318 21.8719L103.998 29.7439L104.398 29.7601ZM104.718 21.8859L104.782 19.7099L104.382 19.6981L104.318 21.8741L104.718 21.8859ZM104.616 19.5069L103.304 19.2829L103.236 19.6771L104.548 19.9011L104.616 19.5069ZM103.267 19.28L101.411 19.312L101.417 19.712L103.273 19.68L103.267 19.28ZM101.214 19.512V22.072H101.614V19.512H101.214ZM101.251 22.1882L101.571 22.6362L101.897 22.4038L101.577 21.9558L101.251 22.1882ZM101.544 22.4586L101.224 23.4506L101.604 23.5734L101.924 22.5814L101.544 22.4586ZM101.214 23.512V26.264H101.614V23.512H101.214ZM101.585 26.1597L100.529 24.4317L100.187 24.6403L101.243 26.3683L101.585 26.1597ZM100.447 24.3571L100.191 24.2291L100.013 24.5869L100.269 24.7149L100.447 24.3571ZM100.272 24.302L99.4716 23.022L99.1324 23.234L99.9324 24.514L100.272 24.302ZM99.4639 23.0105L96.5839 19.0425L96.2601 19.2775L99.1401 23.2455L99.4639 23.0105ZM96.3683 18.9673L93.8403 19.6713L93.9477 20.0567L96.4757 19.3527L96.3683 18.9673ZM93.694 19.864V21.528H94.094V19.864H93.694ZM93.6941 21.5357L93.8221 24.8637L94.2219 24.8483L94.0939 21.5203L93.6941 21.5357ZM93.8225 24.87L93.9505 26.694L94.3495 26.666L94.2215 24.842L93.8225 24.87ZM93.95 26.6762L93.822 33.3322L94.222 33.3398L94.35 26.6838L93.95 26.6762ZM93.8396 33.4181L94.1276 34.0581L94.4924 33.8939L94.2044 33.2539L93.8396 33.4181ZM94.1172 33.9228L93.8612 34.8508L94.2468 34.9572L94.5028 34.0292L94.1172 33.9228ZM93.8542 34.8956L93.6622 39.4396L94.0618 39.4564L94.2538 34.9124L93.8542 34.8956ZM93.662 39.448V39.992H94.062V39.448H93.662ZM93.6723 40.0552L93.7683 40.3432L94.1477 40.2168L94.0517 39.9288L93.6723 40.0552ZM93.7588 40.2626L93.5348 42.8226L93.9332 42.8574L94.1572 40.2974L93.7588 40.2626ZM93.6974 43.0366L95.0734 43.2926L95.1466 42.8994L93.7706 42.6434L93.6974 43.0366ZM95.1168 43.2959L97.0048 43.2319L96.9912 42.8321L95.1032 42.8961L95.1168 43.2959ZM97.1979 43.0382L97.2619 40.9902L96.8621 40.9778L96.7981 43.0258L97.1979 43.0382ZM97.2576 40.9421L97.1616 40.4941L96.7704 40.5779L96.8664 41.0259L97.2576 40.9421ZM97.166 40.5379L97.198 37.2099L96.798 37.2061L96.766 40.5341L97.166 40.5379ZM97.1926 37.1619L96.9046 35.9459L96.5154 36.0381L96.8034 37.2541L97.1926 37.1619ZM96.9081 36.0195L97.0681 34.8675L96.6719 34.8125L96.5119 35.9645L96.9081 36.0195ZM97.07 34.8418L97.134 27.5458L96.734 27.5422L96.67 34.8382L97.07 34.8418ZM97.081 27.4083L96.697 26.9923L96.403 27.2637L96.787 27.6797L97.081 27.4083ZM96.7289 27.0386L96.6969 26.9746L96.3391 27.1534L96.3711 27.2174L96.7289 27.0386ZM96.7044 27.1365L97.1524 25.9845L96.7796 25.8395L96.3316 26.9915L96.7044 27.1365ZM97.166 25.912V24.184H96.766V25.912H97.166ZM96.8039 24.3011L97.6359 25.4531L97.9601 25.2189L97.1281 24.0669L96.8039 24.3011ZM97.6356 25.4528L98.9476 27.2768L99.2724 27.0432L97.9604 25.2192L97.6356 25.4528ZM98.956 27.2876L99.884 28.4076L100.192 28.1524L99.264 27.0324L98.956 27.2876ZM99.8693 28.3874L100.317 29.0914L100.655 28.8766L100.207 28.1726L99.8693 28.3874ZM100.34 29.1205L100.788 29.6005L101.08 29.3275L100.632 28.8475L100.34 29.1205ZM100.762 29.566L101.274 30.43L101.618 30.226L101.106 29.362L100.762 29.566ZM101.246 30.3299L101.278 33.6579L101.678 33.6541L101.646 30.3261L101.246 30.3299ZM101.28 33.6872L101.376 34.2952L101.772 34.2328L101.676 33.6248L101.28 33.6872ZM101.403 34.1611L101.307 34.3211L101.649 34.5269L101.745 34.3669L101.403 34.1611ZM101.278 34.4219L101.246 37.4939L101.646 37.4981L101.678 34.4261L101.278 34.4219ZM101.246 37.4981L101.278 40.5381L101.678 40.5339L101.646 37.4939L101.246 37.4981ZM101.278 40.5334L101.246 43.0294L101.646 43.0346L101.678 40.5386L101.278 40.5334ZM101.434 43.2317L102.522 43.2957L102.546 42.8963L101.458 42.8323L101.434 43.2317ZM102.538 43.296L104.298 43.264L104.29 42.864L102.53 42.896L102.538 43.296ZM104.481 43.1354L104.897 42.0474L104.523 41.9046L104.107 42.9926L104.481 43.1354ZM104.909 41.9547L104.717 40.1627L104.319 40.2053L104.511 41.9973L104.909 41.9547ZM108.832 37.656L108.633 37.6429L108.632 37.6526L108.632 37.6623L108.832 37.656ZM108.896 39.672L108.696 39.6783L108.699 39.7535L108.75 39.8085L108.896 39.672ZM109.344 40.152L109.497 40.2808L109.611 40.1452L109.49 40.0155L109.344 40.152ZM108.832 40.76L108.679 40.6312L108.635 40.6832L108.632 40.7511L108.832 40.76ZM108.736 42.904L108.536 42.8951L108.528 43.0851L108.717 43.1031L108.736 42.904ZM110.752 43.096L110.733 43.2951L110.748 43.2965L110.762 43.2958L110.752 43.096ZM112.064 43.032L112.074 43.2318L112.259 43.2227L112.264 43.0374L112.064 43.032ZM112.096 41.848L112.296 41.8534L112.296 41.844L112.296 41.8347L112.096 41.848ZM112 40.408L112.2 40.3947L112.199 40.3855L112 40.408ZM111.808 38.712L111.619 38.6488L111.605 38.6906L111.61 38.7345L111.808 38.712ZM111.84 38.616L112.03 38.6792L112.039 38.6512L112.04 38.6217L111.84 38.616ZM112 33.048L111.922 32.8638L111.804 32.9139L111.8 33.0423L112 33.048ZM114.496 31.992V31.792H114.456L114.418 31.8078L114.496 31.992ZM114.528 31.992V32.192H114.55L114.572 32.1872L114.528 31.992ZM116.384 31.576L116.584 31.5871L116.599 31.323L116.341 31.3808L116.384 31.576ZM116.352 32.152L116.153 32.1409L116.151 32.1677L116.157 32.1939L116.352 32.152ZM116.448 32.6L116.648 32.6026L116.649 32.5801L116.644 32.5581L116.448 32.6ZM116.384 37.528L116.184 37.5254L116.183 37.606L116.238 37.6648L116.384 37.528ZM116.864 38.04L116.998 38.1887L117.15 38.0521L117.01 37.9032L116.864 38.04ZM116.544 38.328L116.41 38.1793L116.35 38.234L116.345 38.3155L116.544 38.328ZM116.32 41.912L116.121 41.8995L116.118 41.9419L116.133 41.9816L116.32 41.912ZM116.736 43.032L116.549 43.1016L116.597 43.232H116.736V43.032ZM118.592 43.032V43.2323L118.603 43.2317L118.592 43.032ZM119.776 42.968L119.787 43.1677L119.983 43.1571L119.976 42.9607L119.776 42.968ZM119.712 41.208L119.912 41.2007L119.911 41.177L119.905 41.1541L119.712 41.208ZM119.488 40.408L119.288 40.4111L119.289 40.437L119.296 40.4619L119.488 40.408ZM119.424 36.312L119.224 36.3142L119.224 36.3151L119.424 36.312ZM119.36 30.584L119.56 30.5818L119.56 30.5729L119.559 30.5641L119.36 30.584ZM119.296 29.944L119.097 29.9573L119.097 29.9639L119.296 29.944ZM119.2 28.504L119.001 28.4934L119 28.5053L119.001 28.5173L119.2 28.504ZM119.36 25.496L119.56 25.5066L119.562 25.4709L119.551 25.4367L119.36 25.496ZM119.072 24.568L118.914 24.4461L118.851 24.5282L118.881 24.6273L119.072 24.568ZM119.392 24.152L119.551 24.2739L119.59 24.2223L119.592 24.1573L119.392 24.152ZM119.424 22.936H119.624L119.224 22.9307L119.424 22.936ZM119.424 22.968H119.224L119.623 22.9889L119.424 22.968ZM119.616 21.144L119.815 21.165L119.816 21.156L119.616 21.144ZM119.712 19.544L119.912 19.556L119.924 19.3513L119.719 19.3441L119.712 19.544ZM117.888 19.48L117.895 19.2801L117.894 19.2801L117.888 19.48ZM116.704 19.448L116.71 19.2481L116.584 19.2447L116.527 19.3561L116.704 19.448ZM116.224 20.376L116.047 20.2841L116.018 20.3392L116.026 20.4008L116.224 20.376ZM116.384 21.656L116.584 21.6516L116.584 21.6413L116.583 21.6312L116.384 21.656ZM116.448 24.536L116.248 24.5404L116.248 24.5426L116.448 24.536ZM116.544 27.448L116.742 27.4773L116.745 27.4595L116.744 27.4414L116.544 27.448ZM116.416 28.312L116.499 28.4941L116.598 28.449L116.614 28.3413L116.416 28.312ZM116.064 28.472L115.981 28.2899L115.979 28.2913L116.064 28.472ZM115.456 28.76L115.537 28.9432L115.542 28.9407L115.456 28.76ZM114.144 29.336L114.064 29.1529L114.02 29.1722L113.989 29.2094L114.144 29.336ZM113.856 29.688L113.786 29.8753L113.92 29.9256L114.011 29.8146L113.856 29.688ZM113.344 29.496L113.414 29.3087L113.346 29.283L113.277 29.3077L113.344 29.496ZM112 29.976L111.933 29.7877L111.922 29.7917L111.911 29.7971L112 29.976ZM111.936 30.008L111.737 30.0265L111.764 30.3177L112.026 30.1869L111.936 30.008ZM111.648 26.904L111.449 26.8919L111.448 26.9072L111.449 26.9225L111.648 26.904ZM111.776 24.792L111.976 24.8041L111.982 24.702L111.903 24.6372L111.776 24.792ZM111.424 24.504L111.255 24.3972L111.161 24.5468L111.298 24.6588L111.424 24.504ZM111.808 23.896L111.977 24.0028L112.004 23.9613L112.008 23.9123L111.808 23.896ZM111.968 21.944L112.168 21.9603L112.168 21.9551L111.968 21.944ZM112.096 19.64L112.296 19.6511L112.306 19.4652L112.122 19.4416L112.096 19.64ZM109.344 19.288L109.37 19.0896L109.295 19.0801L109.233 19.1216L109.344 19.288ZM108.576 19.8L108.465 19.6336L108.364 19.7012L108.378 19.8224L108.576 19.8ZM108.8 21.784L108.998 21.8137L109.002 21.7877L108.999 21.7616L108.8 21.784ZM108.704 22.424L108.506 22.3943L108.504 22.4136L108.504 22.4331L108.704 22.424ZM108.8 24.536L108.6 24.5451L108.602 24.5584L108.8 24.536ZM109.024 26.52L109.224 26.5282L109.225 26.5128L109.223 26.4976L109.024 26.52ZM108.896 29.656L108.696 29.6478L108.696 29.6581L108.697 29.6684L108.896 29.656ZM109.12 33.272L109.32 33.2851L109.321 33.2724L109.32 33.2596L109.12 33.272ZM108.632 37.6623L108.696 39.6783L109.096 39.6657L109.032 37.6497L108.632 37.6623ZM108.75 39.8085L109.198 40.2885L109.49 40.0155L109.042 39.5355L108.75 39.8085ZM109.191 40.0232L108.679 40.6312L108.985 40.8888L109.497 40.2808L109.191 40.0232ZM108.632 40.7511L108.536 42.8951L108.936 42.9129L109.032 40.7689L108.632 40.7511ZM108.717 43.1031L110.733 43.2951L110.771 42.8969L108.755 42.7049L108.717 43.1031ZM110.762 43.2958L112.074 43.2318L112.055 42.8322L110.743 42.8962L110.762 43.2958ZM112.264 43.0374L112.296 41.8534L111.896 41.8426L111.864 43.0266L112.264 43.0374ZM112.296 41.8347L112.2 40.3947L111.801 40.4213L111.897 41.8613L112.296 41.8347ZM112.199 40.3855L112.007 38.6895L111.61 38.7345L111.802 40.4305L112.199 40.3855ZM111.998 38.7752L112.03 38.6792L111.651 38.5528L111.619 38.6488L111.998 38.7752ZM112.04 38.6217L112.2 33.0537L111.8 33.0423L111.64 38.6103L112.04 38.6217ZM112.078 33.2322L114.574 32.1762L114.418 31.8078L111.922 32.8638L112.078 33.2322ZM114.496 32.192H114.528V31.792H114.496V32.192ZM114.572 32.1872L116.428 31.7712L116.341 31.3808L114.485 31.7968L114.572 32.1872ZM116.185 31.5649L116.153 32.1409L116.552 32.1631L116.584 31.5871L116.185 31.5649ZM116.157 32.1939L116.253 32.6419L116.644 32.5581L116.548 32.1101L116.157 32.1939ZM116.248 32.5974L116.184 37.5254L116.584 37.5306L116.648 32.6026L116.248 32.5974ZM116.238 37.6648L116.718 38.1768L117.01 37.9032L116.53 37.3912L116.238 37.6648ZM116.73 37.8913L116.41 38.1793L116.678 38.4767L116.998 38.1887L116.73 37.8913ZM116.345 38.3155L116.121 41.8995L116.52 41.9245L116.744 38.3405L116.345 38.3155ZM116.133 41.9816L116.549 43.1016L116.924 42.9624L116.508 41.8424L116.133 41.9816ZM116.736 43.232H118.592V42.832H116.736V43.232ZM118.603 43.2317L119.787 43.1677L119.765 42.7683L118.581 42.8323L118.603 43.2317ZM119.976 42.9607L119.912 41.2007L119.512 41.2153L119.576 42.9753L119.976 42.9607ZM119.905 41.1541L119.681 40.3541L119.296 40.4619L119.52 41.2619L119.905 41.1541ZM119.688 40.4049L119.624 36.3089L119.224 36.3151L119.288 40.4111L119.688 40.4049ZM119.624 36.3098L119.56 30.5818L119.16 30.5862L119.224 36.3142L119.624 36.3098ZM119.559 30.5641L119.495 29.9241L119.097 29.9639L119.161 30.6039L119.559 30.5641ZM119.496 29.9307L119.4 28.4907L119.001 28.5173L119.097 29.9573L119.496 29.9307ZM119.4 28.5146L119.56 25.5066L119.161 25.4854L119.001 28.4934L119.4 28.5146ZM119.551 25.4367L119.263 24.5087L118.881 24.6273L119.169 25.5553L119.551 25.4367ZM119.231 24.6899L119.551 24.2739L119.234 24.0301L118.914 24.4461L119.231 24.6899ZM119.592 24.1573L119.624 22.9413L119.224 22.9307L119.192 24.1467L119.592 24.1573ZM119.224 22.936V22.968H119.624V22.936H119.224ZM119.623 22.9889L119.815 21.1649L119.417 21.1231L119.225 22.9471L119.623 22.9889ZM119.816 21.156L119.912 19.556L119.513 19.532L119.417 21.132L119.816 21.156ZM119.719 19.3441L117.895 19.2801L117.881 19.6799L119.705 19.7439L119.719 19.3441ZM117.894 19.2801L116.71 19.2481L116.699 19.6479L117.883 19.6799L117.894 19.2801ZM116.527 19.3561L116.047 20.2841L116.402 20.4679L116.882 19.5399L116.527 19.3561ZM116.026 20.4008L116.186 21.6808L116.583 21.6312L116.423 20.3512L116.026 20.4008ZM116.184 21.6604L116.248 24.5404L116.648 24.5316L116.584 21.6516L116.184 21.6604ZM116.248 24.5426L116.344 27.4546L116.744 27.4414L116.648 24.5294L116.248 24.5426ZM116.346 27.4187L116.218 28.2827L116.614 28.3413L116.742 27.4773L116.346 27.4187ZM116.333 28.1299L115.981 28.2899L116.147 28.6541L116.499 28.4941L116.333 28.1299ZM115.979 28.2913L115.371 28.5793L115.542 28.9407L116.15 28.6527L115.979 28.2913ZM115.376 28.5769L114.064 29.1529L114.225 29.5191L115.537 28.9431L115.376 28.5769ZM113.989 29.2094L113.701 29.5614L114.011 29.8146L114.299 29.4626L113.989 29.2094ZM113.926 29.5007L113.414 29.3087L113.274 29.6833L113.786 29.8753L113.926 29.5007ZM113.277 29.3077L111.933 29.7877L112.068 30.1643L113.412 29.6843L113.277 29.3077ZM111.911 29.7971L111.847 29.8291L112.026 30.1869L112.09 30.1549L111.911 29.7971ZM112.135 29.9895L111.847 26.8855L111.449 26.9225L111.737 30.0265L112.135 29.9895ZM111.848 26.9161L111.976 24.8041L111.577 24.7799L111.449 26.8919L111.848 26.9161ZM111.903 24.6372L111.551 24.3492L111.298 24.6588L111.65 24.9468L111.903 24.6372ZM111.593 24.6108L111.977 24.0028L111.639 23.7892L111.255 24.3972L111.593 24.6108ZM112.008 23.9123L112.168 21.9603L111.769 21.9277L111.609 23.8797L112.008 23.9123ZM112.168 21.9551L112.296 19.6511L111.897 19.6289L111.769 21.9329L112.168 21.9551ZM112.122 19.4416L109.37 19.0896L109.319 19.4864L112.071 19.8384L112.122 19.4416ZM109.233 19.1216L108.465 19.6336L108.687 19.9664L109.455 19.4544L109.233 19.1216ZM108.378 19.8224L108.602 21.8064L108.999 21.7616L108.775 19.7776L108.378 19.8224ZM108.602 21.7543L108.506 22.3943L108.902 22.4537L108.998 21.8137L108.602 21.7543ZM108.504 22.4331L108.6 24.5451L109 24.5269L108.904 22.4149L108.504 22.4331ZM108.602 24.5584L108.826 26.5424L109.223 26.4976L108.999 24.5136L108.602 24.5584ZM108.824 26.5118L108.696 29.6478L109.096 29.6642L109.224 26.5282L108.824 26.5118ZM108.697 29.6684L108.921 33.2844L109.32 33.2596L109.096 29.6436L108.697 29.6684ZM108.921 33.2589L108.633 37.6429L109.032 37.6691L109.32 33.2851L108.921 33.2589ZM128.28 19.416L128.271 19.2158L128.258 19.2172L128.28 19.416ZM127.992 19.448V19.648H128.003L128.014 19.6468L127.992 19.448ZM126.808 19.448V19.248H126.657L126.616 19.3931L126.808 19.448ZM126.744 19.672L126.552 19.6171L126.55 19.6248L126.548 19.6328L126.744 19.672ZM126.552 20.632L126.719 20.7429L126.741 20.71L126.748 20.6712L126.552 20.632ZM126.424 20.824L126.258 20.7131L126.246 20.7304L126.239 20.7497L126.424 20.824ZM124.696 25.144L124.511 25.0697L124.479 25.149L124.514 25.2268L124.696 25.144ZM124.856 25.496L124.973 25.6581L125.106 25.5623L125.038 25.4132L124.856 25.496ZM124.28 25.912L124.163 25.7499L124.117 25.7832L124.095 25.8358L124.28 25.912ZM122.552 30.104L122.658 30.2736L122.713 30.2396L122.737 30.1802L122.552 30.104ZM122.296 30.264L122.19 30.0944L122.093 30.1554L122.096 30.2703L122.296 30.264ZM122.36 32.28L122.16 32.2863L122.162 32.3277L122.179 32.3652L122.36 32.28ZM123.128 33.912L123.313 33.8339L123.309 33.8268L123.128 33.912ZM124.28 36.632L124.096 36.7101L124.1 36.7191L124.28 36.632ZM125.24 38.616L125.06 38.7031L125.115 38.816H125.24V38.616ZM125.592 38.616L125.789 38.6508L125.831 38.416H125.592V38.616ZM125.496 39.16L125.299 39.1252L125.289 39.1816L125.311 39.2346L125.496 39.16ZM126.616 41.944L126.816 41.9379L126.815 41.9024L126.802 41.8694L126.616 41.944ZM126.648 43L126.448 43.0061L126.454 43.1979L126.646 43.2L126.648 43ZM129.56 43.032L129.558 43.232L129.727 43.2338L129.757 43.0678L129.56 43.032ZM129.624 42.68L129.437 42.6098L129.431 42.6266L129.427 42.6442L129.624 42.68ZM130.008 41.656L129.824 41.5782L129.821 41.5858L130.008 41.656ZM131.736 37.56L131.556 37.4735L131.552 37.4823L131.736 37.56ZM132.472 36.024L132.653 36.1104L132.669 36.0753L132.672 36.0365L132.472 36.024ZM132.504 35.512L132.348 35.3871L132.309 35.4364L132.305 35.4995L132.504 35.512ZM132.76 35.192L132.916 35.3169L132.93 35.3001L132.939 35.2807L132.76 35.192ZM134.328 32.024L134.507 32.1127L134.526 32.0759L134.528 32.0349L134.328 32.024ZM134.424 30.264L134.624 30.2749L134.627 30.2255L134.606 30.1805L134.424 30.264ZM133.336 27.896L133.154 27.9781L133.155 27.9795L133.336 27.896ZM132.472 25.976L132.655 25.8939L132.602 25.776H132.472V25.976ZM132.152 25.976L131.956 26.0124L131.986 26.176H132.152V25.976ZM131.992 25.112L132.189 25.0756L132.185 25.0554L132.177 25.0364L131.992 25.112ZM130.36 21.112L130.172 21.1804L130.175 21.1876L130.36 21.112ZM129.72 19.352L129.908 19.2837L129.858 19.1457L129.711 19.1522L129.72 19.352ZM128.344 38.936L128.532 38.8676L128.531 38.8645L128.344 38.936ZM126.936 35.256L127.123 35.1845L127.12 35.1763L127.116 35.1683L126.936 35.256ZM126.296 33.944L126.476 33.8563L126.453 33.8098L126.411 33.7802L126.296 33.944ZM125.656 33.496L125.503 33.368L125.363 33.5351L125.542 33.6598L125.656 33.496ZM125.976 33.112L126.13 33.24L126.199 33.1565L126.167 33.0527L125.976 33.112ZM125.688 32.184L125.879 32.1247L125.877 32.1176L125.874 32.1107L125.688 32.184ZM125.272 31.128L125.073 31.1446L125.075 31.1739L125.086 31.2013L125.272 31.128ZM125.24 30.744L125.054 30.6723L125.037 30.715L125.041 30.7606L125.24 30.744ZM126.296 27.992L126.483 28.0636L126.512 27.987L126.479 27.9118L126.296 27.992ZM126.072 27.48L126.017 27.2877L125.797 27.3506L125.889 27.5602L126.072 27.48ZM126.52 27.352L126.575 27.5443L126.672 27.5167L126.707 27.4229L126.52 27.352ZM128.28 22.712L128.471 22.6518L128.298 22.1025L128.093 22.6411L128.28 22.712ZM128.472 23.32L128.281 23.3803L128.285 23.3906L128.472 23.32ZM129.208 25.272L129.021 25.3426L129.045 25.4068L129.104 25.4427L129.208 25.272ZM129.784 25.624L129.944 25.744L130.076 25.568L129.889 25.4533L129.784 25.624ZM129.496 26.008L129.336 25.888L129.27 25.9767L129.31 26.08L129.496 26.008ZM130.744 29.24L130.933 29.1734L130.931 29.168L130.744 29.24ZM131.128 30.328L131.319 30.267L131.317 30.2614L131.128 30.328ZM131.384 31.128L131.569 31.2036L131.597 31.1363L131.575 31.067L131.384 31.128ZM129.816 34.968L129.631 34.8924L129.614 34.9341L129.617 34.9791L129.816 34.968ZM129.848 35.544L129.649 35.5551L129.659 35.744H129.848V35.544ZM129.88 35.544L130.022 35.6854L130.363 35.344H129.88V35.544ZM129.496 35.928L129.355 35.7866L129.32 35.8219L129.305 35.8697L129.496 35.928ZM128.472 39.288L128.284 39.3563L128.489 39.9192L128.664 39.3463L128.472 39.288ZM128.258 19.2172L127.97 19.2492L128.014 19.6468L128.302 19.6148L128.258 19.2172ZM127.992 19.248H126.808V19.648H127.992V19.248ZM126.616 19.3931L126.552 19.6171L126.937 19.7269L127.001 19.5029L126.616 19.3931ZM126.548 19.6328L126.356 20.5928L126.748 20.6712L126.94 19.7112L126.548 19.6328ZM126.386 20.5211L126.258 20.7131L126.591 20.9349L126.719 20.7429L126.386 20.5211ZM126.239 20.7497L124.511 25.0697L124.882 25.2183L126.61 20.8983L126.239 20.7497ZM124.514 25.2268L124.674 25.5788L125.038 25.4132L124.878 25.0612L124.514 25.2268ZM124.739 25.3339L124.163 25.7499L124.397 26.0741L124.973 25.6581L124.739 25.3339ZM124.095 25.8358L122.367 30.0278L122.737 30.1802L124.465 25.9882L124.095 25.8358ZM122.446 29.9344L122.19 30.0944L122.402 30.4336L122.658 30.2736L122.446 29.9344ZM122.096 30.2703L122.16 32.2863L122.56 32.2737L122.496 30.2577L122.096 30.2703ZM122.179 32.3652L122.947 33.9972L123.309 33.8268L122.541 32.1948L122.179 32.3652ZM122.944 33.99L124.096 36.71L124.464 36.554L123.312 33.834L122.944 33.99ZM124.1 36.7191L125.06 38.7031L125.42 38.5289L124.46 36.5449L124.1 36.7191ZM125.24 38.816H125.592V38.416H125.24V38.816ZM125.395 38.5812L125.299 39.1252L125.693 39.1948L125.789 38.6508L125.395 38.5812ZM125.311 39.2346L126.431 42.0186L126.802 41.8694L125.682 39.0854L125.311 39.2346ZM126.416 41.9501L126.448 43.0061L126.848 42.9939L126.816 41.9379L126.416 41.9501ZM126.646 43.2L129.558 43.232L129.562 42.832L126.65 42.8L126.646 43.2ZM129.757 43.0678L129.821 42.7158L129.427 42.6442L129.363 42.9962L129.757 43.0678ZM129.812 42.7502L130.196 41.7262L129.821 41.5858L129.437 42.6098L129.812 42.7502ZM130.193 41.7337L131.921 37.6377L131.552 37.4823L129.824 41.5783L130.193 41.7337ZM131.917 37.6464L132.653 36.1104L132.292 35.9376L131.556 37.4736L131.917 37.6464ZM132.672 36.0365L132.704 35.5245L132.305 35.4995L132.273 36.0115L132.672 36.0365ZM132.66 35.6369L132.916 35.3169L132.604 35.0671L132.348 35.3871L132.66 35.6369ZM132.939 35.2807L134.507 32.1127L134.149 31.9353L132.581 35.1033L132.939 35.2807ZM134.528 32.0349L134.624 30.2749L134.225 30.2531L134.129 32.0131L134.528 32.0349ZM134.606 30.1805L133.518 27.8125L133.155 27.9795L134.243 30.3475L134.606 30.1805ZM133.519 27.8139L132.655 25.8939L132.29 26.0581L133.154 27.9781L133.519 27.8139ZM132.472 25.776H132.152V26.176H132.472V25.776ZM132.349 25.9396L132.189 25.0756L131.796 25.1484L131.956 26.0124L132.349 25.9396ZM132.177 25.0364L130.545 21.0364L130.175 21.1876L131.807 25.1876L132.177 25.0364ZM130.548 21.0437L129.908 19.2837L129.532 19.4203L130.172 21.1803L130.548 21.0437ZM129.711 19.1522L128.271 19.2162L128.289 19.6158L129.729 19.5518L129.711 19.1522ZM128.531 38.8645L127.123 35.1845L126.749 35.3275L128.157 39.0075L128.531 38.8645ZM127.116 35.1683L126.476 33.8563L126.116 34.0317L126.756 35.3437L127.116 35.1683ZM126.411 33.7802L125.771 33.3322L125.542 33.6598L126.182 34.1078L126.411 33.7802ZM125.81 33.624L126.13 33.24L125.823 32.984L125.503 33.368L125.81 33.624ZM126.167 33.0527L125.879 32.1247L125.497 32.2433L125.785 33.1713L126.167 33.0527ZM125.874 32.1107L125.458 31.0547L125.086 31.2013L125.502 32.2573L125.874 32.1107ZM125.472 31.1114L125.44 30.7274L125.041 30.7606L125.073 31.1446L125.472 31.1114ZM125.427 30.8156L126.483 28.0636L126.11 27.9203L125.054 30.6723L125.427 30.8156ZM126.479 27.9118L126.255 27.3998L125.889 27.5602L126.113 28.0722L126.479 27.9118ZM126.127 27.6723L126.575 27.5443L126.465 27.1597L126.017 27.2877L126.127 27.6723ZM126.707 27.4229L128.467 22.7829L128.093 22.6411L126.333 27.2811L126.707 27.4229ZM128.09 22.7722L128.282 23.3802L128.663 23.2598L128.471 22.6518L128.09 22.7722ZM128.285 23.3906L129.021 25.3426L129.395 25.2014L128.659 23.2494L128.285 23.3906ZM129.104 25.4427L129.68 25.7947L129.889 25.4533L129.313 25.1013L129.104 25.4427ZM129.624 25.504L129.336 25.888L129.656 26.128L129.944 25.744L129.624 25.504ZM129.31 26.08L130.558 29.312L130.931 29.168L129.683 25.936L129.31 26.08ZM130.556 29.3066L130.94 30.3946L131.317 30.2614L130.933 29.1734L130.556 29.3066ZM130.938 30.389L131.194 31.189L131.575 31.067L131.319 30.267L130.938 30.389ZM131.199 31.0524L129.631 34.8924L130.001 35.0436L131.569 31.2036L131.199 31.0524ZM129.617 34.9791L129.649 35.5551L130.048 35.5329L130.016 34.9569L129.617 34.9791ZM129.848 35.744H129.88V35.344H129.848V35.744ZM129.739 35.4026L129.355 35.7866L129.638 36.0694L130.022 35.6854L129.739 35.4026ZM129.305 35.8697L128.281 39.2297L128.664 39.3463L129.688 35.9863L129.305 35.8697ZM128.66 39.2197L128.532 38.8677L128.156 39.0043L128.284 39.3563L128.66 39.2197ZM139.232 37.304L139.065 37.195L139.021 37.2616L139.035 37.3398L139.232 37.304ZM139.296 37.656L139.38 37.8374L139.521 37.7723L139.493 37.6202L139.296 37.656ZM138.4 38.072L138.316 37.8906L138.26 37.9165L138.229 37.9691L138.4 38.072ZM137.856 39L138.025 39.1082L138.028 39.1029L137.856 39ZM137.024 40.248L137.158 40.397L137.174 40.3823L137.187 40.3642L137.024 40.248ZM136.416 40.792L136.283 40.643L136.248 40.6739L136.231 40.7169L136.416 40.792ZM135.936 41.976L135.751 41.9009L135.688 42.0569L135.831 42.1458L135.936 41.976ZM138.56 43.608L138.455 43.7778L138.604 43.8706L138.715 43.7346L138.56 43.608ZM139.424 42.552L139.579 42.6786L139.602 42.6509L139.613 42.617L139.424 42.552ZM139.776 41.528L139.97 41.5765L139.587 41.463L139.776 41.528ZM139.744 41.656L139.55 41.6075L139.923 41.7454L139.744 41.656ZM140.064 40.984L139.904 40.865L139.896 40.8745L139.891 40.8848L140.064 40.984ZM141.344 39.256L141.189 39.1292L141.184 39.137L141.344 39.256ZM143.072 37.144L143.227 37.2706L143.236 37.26L143.243 37.2482L143.072 37.144ZM144.224 35.256L144.395 35.3602L144.426 35.3098L144.424 35.2509L144.224 35.256ZM144.16 32.76L144.36 32.7549L144.358 32.6574L144.279 32.5993L144.16 32.76ZM143.296 32.12L143.16 32.2661L143.168 32.2739L143.177 32.2807L143.296 32.12ZM140.32 29.336L140.457 29.1899L140.443 29.1767L140.426 29.1664L140.32 29.336ZM139.808 29.016L139.645 29.1311L139.668 29.1642L139.702 29.1856L139.808 29.016ZM139.2 28.152L139.364 28.0369L139.359 28.0306L139.354 28.0246L139.2 28.152ZM138.592 27.416L138.432 27.296L138.338 27.422L138.438 27.5434L138.592 27.416ZM139.552 26.136L139.712 26.256L139.734 26.2265L139.745 26.1909L139.552 26.136ZM139.616 25.912L139.454 25.7958L139.433 25.8239L139.424 25.8571L139.616 25.912ZM139.936 25.464L139.784 25.3344L139.778 25.3409L139.774 25.3478L139.936 25.464ZM141.76 23.32L141.913 23.4496L141.928 23.4311L141.939 23.4094L141.76 23.32ZM142.048 22.744L141.907 22.6026L141.884 22.6255L141.869 22.6546L142.048 22.744ZM142.88 21.912L143.022 22.0534L143.035 22.0398L143.046 22.0239L142.88 21.912ZM143.744 20.632L143.91 20.7439L144.013 20.5907L143.869 20.4756L143.744 20.632ZM141.856 19.128L141.981 18.9716L141.935 18.9349L141.876 18.929L141.856 19.128ZM140.896 19.032L140.916 18.833L140.79 18.8204L140.725 18.9291L140.896 19.032ZM140.128 20.312L139.957 20.2091L139.945 20.2279L139.939 20.2488L140.128 20.312ZM140.16 20.696L140.269 20.8637L140.315 20.8341L140.339 20.7854L140.16 20.696ZM139.52 21.112L139.411 20.9443L139.381 20.9639L139.36 20.9927L139.52 21.112ZM138.688 22.232L138.528 22.1127L138.476 22.1824L138.491 22.2678L138.688 22.232ZM138.752 22.584L138.904 22.7148L138.966 22.6424L138.949 22.5482L138.752 22.584ZM137.12 24.472L136.969 24.3412L136.962 24.3489L136.956 24.3573L137.12 24.472ZM135.552 26.712L135.388 26.5973L135.351 26.6504L135.352 26.7152L135.552 26.712ZM135.584 28.728L135.384 28.7312L135.386 28.8134L135.444 28.8709L135.584 28.728ZM137.12 30.232L136.98 30.375L136.985 30.379L137.12 30.232ZM139.584 32.504L139.449 32.651L139.473 32.6731L139.502 32.6864L139.584 32.504ZM140.224 32.792L140.378 32.6643L140.349 32.6286L140.306 32.6096L140.224 32.792ZM141.312 34.104L141.48 34.213L141.56 34.0896L141.466 33.9763L141.312 34.104ZM139.035 37.3398L139.099 37.6918L139.493 37.6202L139.429 37.2682L139.035 37.3398ZM139.212 37.4746L138.316 37.8906L138.484 38.2534L139.38 37.8374L139.212 37.4746ZM138.229 37.9691C138.132 38.1306 138.043 38.284 137.955 38.4358C137.867 38.588 137.78 38.7386 137.685 38.8971L138.028 39.1029C138.125 38.9414 138.213 38.788 138.301 38.6362C138.389 38.484 138.477 38.3334 138.572 38.1749L138.229 37.9691ZM137.688 38.8918C137.4 39.3406 137.178 39.6884 136.862 40.1318L137.187 40.3642C137.51 39.9116 137.737 39.5554 138.024 39.1082L137.688 38.8918ZM136.891 40.099L136.283 40.643L136.55 40.941L137.158 40.397L136.891 40.099ZM136.231 40.7169L135.751 41.9009L136.122 42.0511L136.602 40.8671L136.231 40.7169ZM135.831 42.1458L138.455 43.7778L138.666 43.4382L136.042 41.8062L135.831 42.1458ZM138.715 43.7346L139.579 42.6786L139.269 42.4254L138.405 43.4814L138.715 43.7346ZM139.613 42.617L139.965 41.593L139.587 41.463L139.235 42.487L139.613 42.617ZM139.582 41.4795L139.55 41.6075L139.938 41.7045L139.97 41.5765L139.582 41.4795ZM139.923 41.7454C139.974 41.6444 140.025 41.5252 140.075 41.4138C140.126 41.2989 140.179 41.1863 140.238 41.0832L139.891 40.8848C139.822 41.0057 139.762 41.1331 139.71 41.2502C139.656 41.3708 139.611 41.4756 139.565 41.5666L139.923 41.7454ZM140.225 41.103L141.505 39.375L141.184 39.137L139.904 40.865L140.225 41.103ZM141.499 39.3826L143.227 37.2706L142.917 37.0174L141.189 39.1294L141.499 39.3826ZM143.243 37.2482L144.395 35.3602L144.054 35.1518L142.902 37.0398L143.243 37.2482ZM144.424 35.2509L144.36 32.7549L143.96 32.7651L144.024 35.2611L144.424 35.2509ZM144.279 32.5993L143.415 31.9593L143.177 32.2807L144.041 32.9207L144.279 32.5993ZM143.433 31.9739L140.457 29.1899L140.184 29.4821L143.16 32.2661L143.433 31.9739ZM140.426 29.1664L139.914 28.8464L139.702 29.1856L140.214 29.5056L140.426 29.1664ZM139.972 28.9009L139.364 28.0369L139.037 28.2671L139.645 29.1311L139.972 28.9009ZM139.354 28.0246L138.746 27.2886L138.438 27.5434L139.046 28.2794L139.354 28.0246ZM138.752 27.536L139.712 26.256L139.392 26.016L138.432 27.296L138.752 27.536ZM139.745 26.1909L139.809 25.9669L139.424 25.8571L139.36 26.0811L139.745 26.1909ZM139.779 26.0282L140.099 25.5802L139.774 25.3478L139.454 25.7958L139.779 26.0282ZM140.089 25.5936L141.913 23.4496L141.608 23.1904L139.784 25.3344L140.089 25.5936ZM141.939 23.4094L142.227 22.8334L141.869 22.6546L141.581 23.2306L141.939 23.4094ZM142.19 22.8854L143.022 22.0534L142.739 21.7706L141.907 22.6026L142.19 22.8854ZM143.046 22.0239L143.91 20.7439L143.578 20.5201L142.714 21.8001L143.046 22.0239ZM143.869 20.4756L141.981 18.9716L141.732 19.2844L143.62 20.7884L143.869 20.4756ZM141.876 18.929L140.916 18.833L140.876 19.231L141.836 19.327L141.876 18.929ZM140.725 18.9291L139.957 20.2091L140.3 20.4149L141.068 19.1349L140.725 18.9291ZM139.939 20.2488C139.913 20.3242 139.924 20.3951 139.933 20.4362C139.942 20.4766 139.957 20.5246 139.964 20.5484C139.986 20.6211 139.974 20.6205 139.981 20.6066L140.339 20.7854C140.41 20.6435 140.367 20.4989 140.348 20.4356C140.335 20.3914 140.329 20.3734 140.324 20.3528C140.32 20.3329 140.327 20.3478 140.318 20.3752L139.939 20.2488ZM140.051 20.5283L139.411 20.9443L139.629 21.2797L140.269 20.8637L140.051 20.5283ZM139.36 20.9927L138.528 22.1127L138.849 22.3513L139.681 21.2313L139.36 20.9927ZM138.491 22.2678L138.555 22.6198L138.949 22.5482L138.885 22.1962L138.491 22.2678ZM138.601 22.4532L136.969 24.3412L137.272 24.6028L138.904 22.7148L138.601 22.4532ZM136.956 24.3573L135.388 26.5973L135.716 26.8267L137.284 24.5867L136.956 24.3573ZM135.352 26.7152L135.384 28.7312L135.784 28.7248L135.752 26.7088L135.352 26.7152ZM135.444 28.8709L136.98 30.3749L137.26 30.0891L135.724 28.5851L135.444 28.8709ZM136.985 30.379L139.449 32.651L139.72 32.357L137.256 30.085L136.985 30.379ZM139.502 32.6864L140.142 32.9744L140.306 32.6096L139.666 32.3216L139.502 32.6864ZM140.07 32.9197L141.158 34.2317L141.466 33.9763L140.378 32.6643L140.07 32.9197ZM141.145 33.995L139.065 37.195L139.4 37.413L141.48 34.213L141.145 33.995ZM152.182 19.512L152.177 19.3119L152.168 19.3124L152.182 19.512ZM150.71 19.608V19.8084L150.723 19.8076L150.71 19.608ZM149.366 19.576L149.379 19.376H149.366V19.576ZM148.63 19.8L148.552 19.9843L148.589 20H148.63V19.8ZM148.022 19.544L148.099 19.3597L148.067 19.3461L148.032 19.3443L148.022 19.544ZM144.918 19.384L144.928 19.1843L144.725 19.1738L144.718 19.3767L144.918 19.384ZM144.822 22.008L144.622 22.0007L144.618 22.0878L144.68 22.1494L144.822 22.008ZM145.206 22.392L145.064 22.5334L145.125 22.5947L145.212 22.5919L145.206 22.392ZM147.158 22.328V22.1279L147.151 22.1281L147.158 22.328ZM147.67 22.232L147.724 22.4243L147.774 22.4101L147.811 22.3734L147.67 22.232ZM147.83 22.072L147.857 21.8738L147.758 21.8604L147.688 21.9306L147.83 22.072ZM148.534 22.168L148.731 22.139L148.71 21.9902L148.561 21.9698L148.534 22.168ZM148.726 23.48L148.925 23.4925L148.926 23.4717L148.923 23.451L148.726 23.48ZM148.598 25.528L148.398 25.5155L148.397 25.5345L148.399 25.5533L148.598 25.528ZM148.79 27.032L148.989 27.0369L148.99 27.0217L148.988 27.0067L148.79 27.032ZM148.63 33.56L148.829 33.5671L148.829 33.5649L148.63 33.56ZM148.47 38.072L148.27 38.0649L148.267 38.1457L148.321 38.2058L148.47 38.072ZM148.758 38.392L148.952 38.4383L148.976 38.3362L148.906 38.2582L148.758 38.392ZM148.278 40.408L148.083 40.3617L148.078 40.3845V40.408H148.278ZM148.278 42.872H148.078V43.0441L148.248 43.0698L148.278 42.872ZM149.974 43.128L149.944 43.3258L149.976 43.3307L150.009 43.3249L149.974 43.128ZM150.87 42.968L150.905 43.1649L150.937 43.1591L150.966 43.1431L150.87 42.968ZM151.798 42.456L151.894 42.6311L152.011 42.5665L151.996 42.4336L151.798 42.456ZM151.542 40.184H151.342V40.1952L151.343 40.2064L151.542 40.184ZM151.542 34.168H151.742V34.1101L151.711 34.0612L151.542 34.168ZM151.158 33.56L151.016 33.4186L150.903 33.5316L150.988 33.6668L151.158 33.56ZM151.19 33.528L151.331 33.6694L151.378 33.6228L151.387 33.5577L151.19 33.528ZM151.478 31.608L151.675 31.6377L151.678 31.6216L151.677 31.6054L151.478 31.608ZM151.446 29.144H151.245L151.246 29.1466L151.446 29.144ZM151.414 27.832H151.614V27.8154L151.611 27.7991L151.414 27.832ZM151.382 26.552L151.182 26.5466V26.552H151.382ZM151.446 24.184L151.645 24.1894L151.646 24.1686L151.642 24.1482L151.446 24.184ZM151.318 23.48L151.12 23.4517L151.115 23.4838L151.121 23.5158L151.318 23.48ZM151.51 22.136V21.936H151.336L151.312 22.1077L151.51 22.136ZM152.502 22.136L152.515 21.936H152.502V22.136ZM153.462 22.2L153.519 22.0084L153.497 22.0019L153.475 22.0004L153.462 22.2ZM153.782 22.296L153.724 22.4876L153.752 22.496H153.782V22.296ZM155.222 22.296V22.496H155.409L155.421 22.3087L155.222 22.296ZM155.318 20.792L155.517 20.8047L155.518 20.7841L155.515 20.7637L155.318 20.792ZM155.126 19.448L155.323 19.4197L155.298 19.2442L155.121 19.248L155.126 19.448ZM152.168 19.3124L150.696 19.4084L150.723 19.8076L152.195 19.7116L152.168 19.3124ZM150.71 19.408C150.261 19.408 149.851 19.4079 149.379 19.3764L149.352 19.7756C149.84 19.8081 150.262 19.808 150.71 19.808V19.408ZM149.366 19.376C149.189 19.376 149.015 19.4515 148.893 19.5048C148.825 19.5345 148.772 19.5588 148.721 19.5769C148.67 19.5955 148.642 19.6 148.63 19.6V20C148.713 20 148.793 19.9765 148.858 19.9531C148.923 19.9292 148.994 19.8975 149.054 19.8712C149.188 19.8125 149.286 19.776 149.366 19.776V19.376ZM148.707 19.6157L148.099 19.3597L147.944 19.7283L148.552 19.9843L148.707 19.6157ZM148.032 19.3443L144.928 19.1843L144.907 19.5837L148.011 19.7437L148.032 19.3443ZM144.718 19.3767L144.622 22.0007L145.021 22.0153L145.117 19.3913L144.718 19.3767ZM144.68 22.1494L145.064 22.5334L145.347 22.2506L144.963 21.8666L144.68 22.1494ZM145.212 22.5919L147.164 22.5279L147.151 22.1281L145.199 22.1921L145.212 22.5919ZM147.158 22.528C147.281 22.528 147.495 22.49 147.724 22.4243L147.615 22.0397C147.396 22.102 147.226 22.128 147.158 22.128V22.528ZM147.811 22.3734L147.971 22.2134L147.688 21.9306L147.528 22.0906L147.811 22.3734ZM147.802 22.2702L148.506 22.3662L148.561 21.9698L147.857 21.8738L147.802 22.2702ZM148.336 22.197L148.528 23.509L148.923 23.451L148.731 22.139L148.336 22.197ZM148.526 23.4675L148.398 25.5155L148.797 25.5405L148.925 23.4925L148.526 23.4675ZM148.399 25.5533L148.591 27.0573L148.988 27.0067L148.796 25.5027L148.399 25.5533ZM148.59 27.0271L148.43 33.5551L148.829 33.5649L148.989 27.0369L148.59 27.0271ZM148.43 33.5529L148.27 38.0649L148.669 38.0791L148.829 33.5671L148.43 33.5529ZM148.321 38.2058L148.609 38.5258L148.906 38.2582L148.618 37.9382L148.321 38.2058ZM148.563 38.3457L148.083 40.3617L148.472 40.4543L148.952 38.4383L148.563 38.3457ZM148.078 40.408V42.872H148.478V40.408H148.078ZM148.248 43.0698L149.944 43.3258L150.003 42.9302L148.307 42.6742L148.248 43.0698ZM150.009 43.3249L150.905 43.1649L150.834 42.7711L149.938 42.9311L150.009 43.3249ZM150.966 43.1431L151.894 42.6311L151.701 42.2809L150.773 42.7929L150.966 43.1431ZM151.996 42.4336L151.74 40.1616L151.343 40.2064L151.599 42.4784L151.996 42.4336ZM151.742 40.184V34.168H151.342V40.184H151.742ZM151.711 34.0612L151.327 33.4532L150.988 33.6668L151.372 34.2748L151.711 34.0612ZM151.299 33.7014L151.331 33.6694L151.048 33.3866L151.016 33.4186L151.299 33.7014ZM151.387 33.5577L151.675 31.6377L151.28 31.5783L150.992 33.4983L151.387 33.5577ZM151.677 31.6054L151.645 29.1414L151.246 29.1466L151.278 31.6106L151.677 31.6054ZM151.646 29.144V28.6H151.246V29.144H151.646ZM151.646 28.6C151.646 28.4806 151.637 28.3458 151.629 28.2159C151.621 28.083 151.614 27.953 151.614 27.832H151.214C151.214 27.967 151.222 28.109 151.23 28.2401C151.238 28.3742 151.246 28.4954 151.246 28.6H151.646ZM151.611 27.7991C151.598 27.7216 151.59 27.4919 151.585 27.2249C151.582 26.9667 151.582 26.6961 151.582 26.552H151.182C151.182 26.6959 151.181 26.9693 151.186 27.2311C151.189 27.4841 151.197 27.7504 151.216 27.8649L151.611 27.7991ZM151.581 26.5574L151.645 24.1894L151.246 24.1786L151.182 26.5466L151.581 26.5574ZM151.642 24.1482L151.514 23.4442L151.121 23.5158L151.249 24.2198L151.642 24.1482ZM151.515 23.5083L151.707 22.1643L151.312 22.1077L151.12 23.4517L151.515 23.5083ZM151.51 22.336H152.502V21.936H151.51V22.336ZM152.488 22.3356L153.448 22.3996L153.475 22.0004L152.515 21.9364L152.488 22.3356ZM153.404 22.3916L153.724 22.4876L153.839 22.1044L153.519 22.0084L153.404 22.3916ZM153.782 22.496H155.222V22.096H153.782V22.496ZM155.421 22.3087L155.517 20.8047L155.118 20.7793L155.022 22.2833L155.421 22.3087ZM155.515 20.7637L155.323 19.4197L154.928 19.4763L155.12 20.8203L155.515 20.7637ZM155.121 19.248L152.177 19.312L152.186 19.712L155.13 19.648L155.121 19.248Z" fill="white"/>
<path fill-rule="evenodd" clip-rule="evenodd" d="M9.64795 38.7086L14.5987 21.498H34.4017L39.3517 38.7086H9.64795Z" fill="#EED9C3"/>
<path d="M30.8505 31.6133C31.6233 31.6133 32.2498 30.9931 32.2498 30.228C32.2498 29.463 31.6233 28.8428 30.8505 28.8428C30.0777 28.8428 29.4512 29.463 29.4512 30.228C29.4512 30.9931 30.0777 31.6133 30.8505 31.6133Z" fill="#353535"/>
<path fill-rule="evenodd" clip-rule="evenodd" d="M21.5916 28.6519C21.5916 28.1679 21.1956 27.7764 20.7073 27.7764H16.5352C16.0476 27.7764 15.6509 28.1679 15.6509 28.6519V31.3633C15.6509 32.0895 16.2449 32.6776 16.977 32.6776H18.496C19.3155 32.678 20.1021 32.3552 20.6851 31.7792C20.972 31.4959 21.1998 31.1585 21.3554 30.7866C21.511 30.4146 21.5913 30.0155 21.5916 29.6123V28.6519V28.6519Z" fill="#6AE0FA"/>
<path fill-rule="evenodd" clip-rule="evenodd" d="M44.0491 19.1034L39.0991 24.0047V19.1034L45.2874 14.2021L44.0491 19.1034Z" fill="#F92DB0"/>
<path fill-rule="evenodd" clip-rule="evenodd" d="M45.2869 14.453L39.0986 19.3543V14.453L46.5251 9.55176L45.2869 14.453Z" fill="#E2199B"/>
<path fill-rule="evenodd" clip-rule="evenodd" d="M39.1724 5.04976L49 0L46.525 9.80325L39.1724 14.8523V5.04976Z" fill="#D5088C"/>
<path fill-rule="evenodd" clip-rule="evenodd" d="M4.95063 19.1034L9.90139 24.0047V19.1034L3.71387 14.2021L4.95063 19.1034Z" fill="#F92DB0"/>
<path fill-rule="evenodd" clip-rule="evenodd" d="M3.71309 14.453L9.90135 19.3543V14.453L2.47559 9.55176L3.71309 14.453Z" fill="#E2199B"/>
<path fill-rule="evenodd" clip-rule="evenodd" d="M9.72863 4.88648L0 0L2.47501 9.80325L9.72937 14.689L9.72863 4.88648Z" fill="#D5088C"/>
<path fill-rule="evenodd" clip-rule="evenodd" d="M39.3525 14.203C39.3525 14.203 31.926 9.30176 24.5002 9.30176C17.0737 9.30176 9.64795 14.203 9.64795 14.203V28.9068L11.628 32.8276C13.2681 26.5714 18.8121 24.6512 24.0222 28.5499L24.5002 28.9068L24.9775 28.5499C30.1824 24.6557 35.739 26.5995 37.3717 32.8276L39.3517 28.9068V14.203H39.3525Z" fill="#D5088C"/>
<path fill-rule="evenodd" clip-rule="evenodd" d="M19.55 36.2588L15.5892 59.2948L10.1279 55.374L14.5992 38.7094L19.55 36.2588Z" fill="url(#paint0_linear_637_24)"/>
<path fill-rule="evenodd" clip-rule="evenodd" d="M29.4522 36.2588L33.4123 59.2948L38.8735 55.374L34.4023 38.7094L29.4522 36.2588Z" fill="url(#paint1_linear_637_24)"/>
<path fill-rule="evenodd" clip-rule="evenodd" d="M9.64849 28.9072L5.68848 43.611L10.6385 53.4135L14.5985 38.7097L9.64849 28.9072Z" fill="url(#paint2_linear_637_24)"/>
<path fill-rule="evenodd" clip-rule="evenodd" d="M39.353 28.9072L43.313 43.611L38.363 53.4135L34.403 38.7097L39.353 28.9072Z" fill="url(#paint3_linear_637_24)"/>
<path fill-rule="evenodd" clip-rule="evenodd" d="M19.5502 36.2582L15.0952 60.2747L24.5002 65.176L33.9075 60.2747L29.4517 36.2582L24.8704 33.9901L24.501 33.8076L19.5502 36.2582Z" fill="#E6E6E6"/>
<path fill-rule="evenodd" clip-rule="evenodd" d="M26.2746 37.2393H22.8096V38.4657C22.8096 38.9208 22.9921 39.3559 23.3171 39.6773C23.6422 39.9994 24.0818 40.1797 24.5413 40.1797H24.5428C25.0024 40.1797 25.4427 39.9994 25.7678 39.6773C26.0928 39.3559 26.2746 38.9208 26.2746 38.4657V37.2393V37.2393Z" fill="#353535"/>
<defs>
<linearGradient id="paint0_linear_637_24" x1="14.2664" y1="50.0323" x2="17.569" y2="50.119" gradientUnits="userSpaceOnUse">
<stop stop-color="#E6E6E6"/>
<stop offset="0.56" stop-color="#D8D8D8"/>
<stop offset="1" stop-color="#A1A1A1"/>
</linearGradient>
<linearGradient id="paint1_linear_637_24" x1="34.7354" y1="50.0323" x2="31.4331" y2="50.119" gradientUnits="userSpaceOnUse">
<stop stop-color="#E6E6E6"/>
<stop offset="0.56" stop-color="#D8D8D8"/>
<stop offset="1" stop-color="#A1A1A1"/>
</linearGradient>
<linearGradient id="paint2_linear_637_24" x1="5.93644" y1="42.0014" x2="15.4992" y2="42.3312" gradientUnits="userSpaceOnUse">
<stop stop-color="#E6E6E6"/>
<stop offset="0.56" stop-color="#D8D8D8"/>
<stop offset="1" stop-color="#A1A1A1"/>
</linearGradient>
<linearGradient id="paint3_linear_637_24" x1="43.065" y1="42.0014" x2="33.5023" y2="42.3312" gradientUnits="userSpaceOnUse">
<stop stop-color="#E6E6E6"/>
<stop offset="0.56" stop-color="#D8D8D8"/>
<stop offset="1" stop-color="#A1A1A1"/>
</linearGradient>
</defs>
</svg>
