<svg width="226" height="51" viewBox="0 0 226 51" fill="none" xmlns="http://www.w3.org/2000/svg">
<path d="M27.0437 46.0498C25.0134 48.0918 22.4644 49.541 19.6714 50.2414C16.8783 50.9417 13.9471 50.8666 11.1936 50.0241C8.44011 49.1816 5.9687 47.6038 4.04569 45.4605C2.12267 43.3172 0.820976 40.6898 0.280855 37.8614C-0.259265 35.033 -0.0173295 32.1109 0.980593 29.4098C1.97851 26.7088 3.69459 24.3312 5.9439 22.5334C8.1932 20.7356 10.8905 19.5856 13.745 19.2075C16.5996 18.8293 19.5032 19.2373 22.1431 20.3874H22.1558C24.0065 21.1919 25.6863 22.343 27.1044 23.7786L31.1964 27.8716L26.5173 32.5507L22.293 28.3254L22.3038 28.3156C21.4983 27.5239 20.5541 26.887 19.5183 26.4367V26.4318C17.9822 25.7639 16.293 25.5276 14.6326 25.7484C12.9722 25.9693 11.4035 26.6388 10.0953 27.685C8.7872 28.7311 7.7892 30.1143 7.20879 31.6856C6.62838 33.2568 6.48756 34.9566 6.80148 36.602C7.1154 38.2473 7.87217 39.7759 8.99031 41.0231C10.1085 42.2703 11.5456 43.1888 13.147 43.6799C14.7485 44.171 16.4535 44.2159 18.0786 43.8099C19.7037 43.4038 21.1872 42.5622 22.3695 41.3757V41.3757L22.5469 41.1983L22.6086 41.1316L39.647 24.1001C41.1255 22.5149 42.9144 21.2508 44.9024 20.3864H44.9151C47.5629 19.2386 50.4744 18.8379 53.3338 19.2277C56.1932 19.6175 58.8912 20.783 61.1351 22.5976C63.379 24.4123 65.0831 26.8068 66.0624 29.5214C67.0417 32.236 67.2589 35.167 66.6903 37.9962C66.1218 40.8255 64.7893 43.445 62.8373 45.5706C60.8854 47.6962 58.3886 49.2465 55.6179 50.0535C52.8472 50.8605 49.9084 50.8933 47.1204 50.1482C44.3324 49.4032 41.8017 47.9089 39.8028 45.8274V45.8274L35.8824 41.9069L40.5624 37.2268L44.4829 41.1473L44.477 41.1542C45.6276 42.3791 47.0923 43.2649 48.7115 43.7149C50.3307 44.165 52.0423 44.1621 53.66 43.7066C55.2777 43.2511 56.7393 42.3605 57.8858 41.1317C59.0323 39.9028 59.8196 38.383 60.162 36.7377C60.5044 35.0923 60.3887 33.3846 59.8276 31.8004C59.2665 30.2163 58.2814 28.8165 56.9798 27.7535C55.6781 26.6905 54.1096 26.005 52.4453 25.7718C50.781 25.5386 49.0846 25.7666 47.5409 26.4308V26.4357C46.3846 26.9374 45.3438 27.6714 44.4829 28.592L44.2261 28.3519L44.4878 28.6116L27.0525 46.0567L27.0437 46.0498V46.0498ZM33.5311 0C37.9569 0.000689322 42.2182 1.67814 45.4569 4.69461C48.6956 7.71108 50.6712 11.8426 50.986 16.2572C49.208 16.2804 47.4425 16.5583 45.7433 17.0825C45.2925 17.2197 44.8475 17.3749 44.4084 17.548V17.498C44.4084 14.6127 43.2622 11.8455 41.2219 9.80521C39.1817 7.76494 36.4145 6.61873 33.5291 6.61873C30.6437 6.61873 27.8765 7.76494 25.8363 9.80521C23.796 11.8455 22.6498 14.6127 22.6498 17.498V17.551C22.1343 17.3471 21.6115 17.1677 21.0816 17.0129C19.4575 16.5349 17.7758 16.2807 16.083 16.2572C16.3977 11.8437 18.3723 7.71324 21.6096 4.69694C24.8468 1.68065 29.1064 0.00242367 33.5311 0V0Z" fill="url(#paint0_linear_611_11)"/>
<path d="M95.904 14.56C97.952 14.56 99.7227 14.9973 101.216 15.872C102.709 16.7467 103.861 18.0053 104.672 19.648C105.483 21.2693 105.888 23.2 105.888 25.44C105.888 27.68 105.483 29.6213 104.672 31.264C103.861 32.8853 102.709 34.1333 101.216 35.008C99.7227 35.8827 97.952 36.32 95.904 36.32C93.856 36.32 92.0853 35.8827 90.592 35.008C89.12 34.1333 87.9787 32.8853 87.168 31.264C86.3573 29.6213 85.952 27.68 85.952 25.44C85.952 23.2 86.3573 21.2693 87.168 19.648C87.9787 18.0053 89.12 16.7467 90.592 15.872C92.0853 14.9973 93.856 14.56 95.904 14.56ZM95.904 17.536C93.92 17.536 92.3627 18.2293 91.232 19.616C90.1013 20.9813 89.536 22.9227 89.536 25.44C89.536 27.9573 90.1013 29.9093 91.232 31.296C92.3627 32.6613 93.92 33.344 95.904 33.344C97.9093 33.344 99.4773 32.6613 100.608 31.296C101.739 29.9093 102.304 27.9573 102.304 25.44C102.304 22.9227 101.739 20.9813 100.608 19.616C99.4773 18.2293 97.9093 17.536 95.904 17.536ZM116.644 36.32C115.321 36.32 114.126 35.9893 113.06 35.328C111.993 34.6667 111.14 33.7173 110.5 32.48C109.881 31.2427 109.572 29.76 109.572 28.032C109.572 26.24 109.902 24.7253 110.564 23.488C111.225 22.2507 112.11 21.312 113.22 20.672C114.329 20.0107 115.545 19.68 116.868 19.68C118.02 19.68 119.022 19.9573 119.876 20.512C120.75 21.0453 121.401 21.76 121.828 22.656V12.8H125.252V36H122.212L122.02 32.96C121.593 34.0267 120.889 34.8587 119.908 35.456C118.926 36.032 117.838 36.32 116.644 36.32ZM117.38 33.568C118.724 33.568 119.801 33.056 120.612 32.032C121.422 31.008 121.828 29.6 121.828 27.808C121.828 26.144 121.422 24.8427 120.612 23.904C119.822 22.944 118.788 22.464 117.508 22.464C116.078 22.464 114.969 22.9547 114.18 23.936C113.39 24.9173 112.996 26.272 112.996 28C112.996 29.728 113.38 31.0933 114.148 32.096C114.916 33.0773 115.993 33.568 117.38 33.568ZM132.29 17.312C131.544 17.312 130.968 17.1307 130.562 16.768C130.178 16.384 129.986 15.8507 129.986 15.168C129.986 14.4853 130.178 13.9627 130.562 13.6C130.968 13.2373 131.544 13.056 132.29 13.056C133.016 13.056 133.57 13.2373 133.954 13.6C134.36 13.9627 134.562 14.4853 134.562 15.168C134.562 15.8507 134.36 16.384 133.954 16.768C133.57 17.1307 133.016 17.312 132.29 17.312ZM133.986 20V36H130.562V20H133.986ZM139.344 36V20H142.384L142.544 22.752C143.077 21.6853 143.813 20.9067 144.752 20.416C145.712 19.9253 146.778 19.68 147.952 19.68C149.082 19.68 150.096 19.904 150.992 20.352C151.909 20.7787 152.634 21.44 153.168 22.336C153.701 23.2107 153.968 24.3093 153.968 25.632V36H150.544V26.688C150.544 25.1093 150.213 24.0213 149.552 23.424C148.912 22.8053 148.101 22.496 147.12 22.496C146.416 22.496 145.733 22.656 145.072 22.976C144.41 23.296 143.856 23.8293 143.408 24.576C142.981 25.3013 142.768 26.272 142.768 27.488V36H139.344ZM159.156 36V12.8H162.58V22.56C163.113 21.5573 163.828 20.832 164.724 20.384C165.641 19.9147 166.655 19.68 167.764 19.68C168.895 19.68 169.908 19.904 170.804 20.352C171.721 20.7787 172.447 21.44 172.98 22.336C173.513 23.2107 173.78 24.3093 173.78 25.632V36H170.356V26.72C170.356 25.12 170.025 24.0213 169.364 23.424C168.724 22.8053 167.913 22.496 166.932 22.496C166.228 22.496 165.545 22.6667 164.884 23.008C164.223 23.328 163.668 23.8613 163.22 24.608C162.793 25.3333 162.58 26.3147 162.58 27.552V36H159.156ZM185.913 19.68C187.47 19.68 188.846 20.0107 190.041 20.672C191.235 21.3333 192.163 22.2933 192.825 23.552C193.507 24.7893 193.849 26.272 193.849 28C193.849 29.728 193.507 31.2213 192.825 32.48C192.163 33.7173 191.235 34.6667 190.041 35.328C188.846 35.9893 187.47 36.32 185.913 36.32C184.355 36.32 182.979 35.9893 181.785 35.328C180.59 34.6667 179.651 33.7173 178.969 32.48C178.286 31.2213 177.945 29.728 177.945 28C177.945 26.272 178.286 24.7893 178.969 23.552C179.651 22.2933 180.59 21.3333 181.785 20.672C182.979 20.0107 184.355 19.68 185.913 19.68ZM185.913 22.368C184.505 22.368 183.395 22.8587 182.585 23.84C181.774 24.8 181.369 26.1867 181.369 28C181.369 29.8133 181.774 31.2107 182.585 32.192C183.395 33.152 184.505 33.632 185.913 33.632C187.321 33.632 188.419 33.152 189.209 32.192C190.019 31.2107 190.425 29.8133 190.425 28C190.425 26.1867 190.019 24.8 189.209 23.84C188.419 22.8587 187.321 22.368 185.913 22.368ZM204.236 36.32C202.636 36.32 201.175 36.0107 199.852 35.392C198.529 34.7733 197.484 33.8987 196.716 32.768L199.084 30.72C199.553 31.5947 200.225 32.2987 201.1 32.832C201.996 33.344 203.063 33.6 204.3 33.6C205.281 33.6 206.06 33.4293 206.636 33.088C207.212 32.7467 207.5 32.2667 207.5 31.648C207.5 31.2427 207.361 30.8907 207.084 30.592C206.828 30.272 206.327 30.0267 205.58 29.856L202.22 29.152C200.513 28.8107 199.297 28.256 198.572 27.488C197.847 26.72 197.484 25.76 197.484 24.608C197.484 23.7333 197.74 22.9227 198.252 22.176C198.785 21.4293 199.543 20.832 200.524 20.384C201.505 19.9147 202.689 19.68 204.076 19.68C205.655 19.68 207.009 19.968 208.14 20.544C209.292 21.0987 210.167 21.8987 210.764 22.944L208.396 24.928C207.969 24.0747 207.361 23.4453 206.572 23.04C205.804 22.6133 204.993 22.4 204.14 22.4C203.095 22.4 202.284 22.592 201.708 22.976C201.153 23.3387 200.876 23.8187 200.876 24.416C200.876 24.8213 201.036 25.1947 201.356 25.536C201.676 25.856 202.252 26.1013 203.084 26.272L206.732 27.04C208.268 27.3387 209.345 27.8507 209.964 28.576C210.604 29.28 210.924 30.144 210.924 31.168C210.924 32.704 210.327 33.952 209.132 34.912C207.937 35.8507 206.305 36.32 204.236 36.32ZM225.27 20V22.688H219.766V31.2C219.766 31.968 219.979 32.544 220.406 32.928C220.832 33.2907 221.387 33.472 222.07 33.472C222.667 33.472 223.168 33.3867 223.574 33.216C224 33.024 224.395 32.768 224.758 32.448L225.526 34.944C225.035 35.3707 224.427 35.712 223.702 35.968C222.998 36.2027 222.208 36.32 221.334 36.32C219.926 36.32 218.742 35.9787 217.782 35.296C216.822 34.592 216.342 33.4187 216.342 31.776V22.688H213.27V20H216.342V16.256L219.766 15.296V20H225.27Z" fill="white"/>
<defs>
<linearGradient id="paint0_linear_611_11" x1="-1.76395" y1="53.9378" x2="68.2556" y2="8.31826" gradientUnits="userSpaceOnUse">
<stop offset="0.14" stop-color="#3A9BEB"/>
<stop offset="0.23" stop-color="#5BC6F3"/>
<stop offset="0.4" stop-color="#6EE8FC"/>
<stop offset="0.63" stop-color="#8167F6"/>
<stop offset="0.92" stop-color="#D5088C"/>
<stop offset="1" stop-color="#A420AA"/>
</linearGradient>
</defs>
</svg>
