<svg width="334" height="81" viewBox="0 0 334 81" fill="none" xmlns="http://www.w3.org/2000/svg">
<path d="M43.0298 73.271C39.7994 76.52 35.7437 78.8259 31.2996 79.9403C26.8555 81.0546 22.1916 80.935 17.8104 79.5946C13.4293 78.2541 9.49694 75.7435 6.43719 72.3333C3.37744 68.9231 1.30627 64.7426 0.446875 60.2423C-0.412524 55.7419 -0.0275734 51.0924 1.56025 46.7947C3.14806 42.497 5.87855 38.714 9.45748 35.8535C13.0364 32.9929 17.3281 31.1632 21.8701 30.5615C26.412 29.9598 31.0321 30.6089 35.2324 32.4389H35.2527C38.1974 33.719 40.87 35.5505 43.1265 37.8348L49.6374 44.3472L42.1924 51.7922L35.471 45.0692L35.4881 45.0536C34.2065 43.7939 32.7042 42.7805 31.0561 42.0641V42.0563C28.612 40.9936 25.9242 40.6176 23.2823 40.969C20.6404 41.3203 18.1444 42.3856 16.0629 44.0502C13.9815 45.7148 12.3936 47.9156 11.4701 50.4157C10.5466 52.9158 10.3225 55.6204 10.822 58.2383C11.3215 60.8563 12.5256 63.2884 14.3047 65.2728C16.0838 67.2573 18.3705 68.7188 20.9186 69.5002C23.4667 70.2815 26.1796 70.353 28.7653 69.7069C31.351 69.0609 33.7115 67.7218 35.5926 65.8338L35.8749 65.5516L35.9731 65.4455L63.0833 38.3463C65.4358 35.824 68.2822 33.8126 71.4453 32.4374H71.4656C75.6785 30.6111 80.3111 29.9735 84.8607 30.5937C89.4104 31.2139 93.7032 33.0683 97.2736 35.9557C100.844 38.843 103.555 42.653 105.113 46.9723C106.672 51.2915 107.017 55.955 106.113 60.4567C105.208 64.9585 103.088 69.1265 99.982 72.5085C96.8763 75.8905 92.9035 78.3574 88.495 79.6414C84.0865 80.9254 79.4105 80.9775 74.9744 79.7921C70.5383 78.6067 66.5117 76.229 63.3313 72.917L57.0933 66.6791L64.5399 59.2325L70.7778 65.4705L70.7685 65.4814C72.5992 67.4304 74.9296 68.8398 77.506 69.5559C80.0823 70.272 82.8058 70.2674 85.3797 69.5427C87.9537 68.8179 90.2794 67.4008 92.1035 65.4456C93.9277 63.4904 95.1804 61.0721 95.7252 58.4542C96.27 55.8363 96.0859 53.119 95.1931 50.5985C94.3003 48.0779 92.733 45.8506 90.6619 44.1592C88.5907 42.4679 86.0952 41.3773 83.447 41.0062C80.7989 40.6351 78.0997 40.9978 75.6434 42.0547V42.0625C73.8037 42.8608 72.1476 44.0286 70.7778 45.4934L70.3692 45.1113L70.7856 45.5246L43.0439 73.282L43.0298 73.271ZM53.3521 0C60.3942 0.0010968 67.1744 2.67012 72.3276 7.4697C77.4807 12.2693 80.6242 18.843 81.125 25.8672C78.296 25.9042 75.4869 26.3464 72.7833 27.1803C72.066 27.3987 71.358 27.6456 70.6593 27.9211V27.8416C70.6593 23.2506 68.8355 18.8476 65.5892 15.6013C62.3429 12.355 57.94 10.5312 53.349 10.5312C48.758 10.5312 44.355 12.355 41.1087 15.6013C37.8624 18.8476 36.0386 23.2506 36.0386 27.8416V27.9258C35.2184 27.6014 34.3866 27.316 33.5435 27.0696C30.9593 26.3092 28.2835 25.9046 25.5901 25.8672C26.0908 18.8449 29.2327 12.2727 34.3835 7.47342C39.5344 2.67412 46.3119 0.00385636 53.3521 0V0Z" fill="url(#paint0_linear_611_11)"/>
<path d="M144.156 53.36C141.588 53.36 139.272 52.808 137.208 51.704C135.144 50.576 133.524 49.028 132.348 47.06C131.172 45.068 130.584 42.848 130.584 40.4C130.584 37.952 131.172 35.744 132.348 33.776C133.524 31.784 135.144 30.236 137.208 29.132C139.272 28.004 141.588 27.44 144.156 27.44C146.724 27.44 149.04 28.004 151.104 29.132C153.168 30.236 154.788 31.772 155.964 33.74C157.14 35.708 157.728 37.928 157.728 40.4C157.728 42.872 157.14 45.092 155.964 47.06C154.788 49.028 153.168 50.576 151.104 51.704C149.04 52.808 146.724 53.36 144.156 53.36ZM144.156 49.256C145.836 49.256 147.348 48.884 148.692 48.14C150.036 47.372 151.092 46.316 151.86 44.972C152.628 43.604 153.012 42.08 153.012 40.4C153.012 38.72 152.628 37.208 151.86 35.864C151.092 34.496 150.036 33.44 148.692 32.696C147.348 31.928 145.836 31.544 144.156 31.544C142.476 31.544 140.964 31.928 139.62 32.696C138.276 33.44 137.22 34.496 136.452 35.864C135.684 37.208 135.3 38.72 135.3 40.4C135.3 42.08 135.684 43.604 136.452 44.972C137.22 46.316 138.276 47.372 139.62 48.14C140.964 48.884 142.476 49.256 144.156 49.256ZM162.689 27.8H173.705C176.393 27.8 178.781 28.328 180.869 29.384C182.957 30.416 184.577 31.892 185.729 33.812C186.881 35.708 187.457 37.904 187.457 40.4C187.457 42.896 186.881 45.104 185.729 47.024C184.577 48.92 182.957 50.396 180.869 51.452C178.781 52.484 176.393 53 173.705 53H162.689V27.8ZM173.489 49.04C175.337 49.04 176.957 48.692 178.349 47.996C179.765 47.276 180.845 46.268 181.589 44.972C182.357 43.652 182.741 42.128 182.741 40.4C182.741 38.672 182.357 37.16 181.589 35.864C180.845 34.544 179.765 33.536 178.349 32.84C176.957 32.12 175.337 31.76 173.489 31.76H167.369V49.04H173.489ZM192.431 27.8H197.111V53H192.431V27.8ZM226.319 27.8V53H222.467L208.571 35.936V53H203.927V27.8H207.779L221.675 44.864V27.8H226.319ZM255.464 27.8V53H250.784V42.2H237.752V53H233.072V27.8H237.752V38.204H250.784V27.8H255.464ZM273.988 53.36C271.42 53.36 269.104 52.808 267.04 51.704C264.976 50.576 263.356 49.028 262.18 47.06C261.004 45.068 260.416 42.848 260.416 40.4C260.416 37.952 261.004 35.744 262.18 33.776C263.356 31.784 264.976 30.236 267.04 29.132C269.104 28.004 271.42 27.44 273.988 27.44C276.556 27.44 278.872 28.004 280.936 29.132C283 30.236 284.62 31.772 285.796 33.74C286.972 35.708 287.56 37.928 287.56 40.4C287.56 42.872 286.972 45.092 285.796 47.06C284.62 49.028 283 50.576 280.936 51.704C278.872 52.808 276.556 53.36 273.988 53.36ZM273.988 49.256C275.668 49.256 277.18 48.884 278.524 48.14C279.868 47.372 280.924 46.316 281.692 44.972C282.46 43.604 282.844 42.08 282.844 40.4C282.844 38.72 282.46 37.208 281.692 35.864C280.924 34.496 279.868 33.44 278.524 32.696C277.18 31.928 275.668 31.544 273.988 31.544C272.308 31.544 270.796 31.928 269.452 32.696C268.108 33.44 267.052 34.496 266.284 35.864C265.516 37.208 265.132 38.72 265.132 40.4C265.132 42.08 265.516 43.604 266.284 44.972C267.052 46.316 268.108 47.372 269.452 48.14C270.796 48.884 272.308 49.256 273.988 49.256ZM300.333 53.36C298.389 53.36 296.505 53.084 294.681 52.532C292.881 51.98 291.453 51.248 290.397 50.336L292.017 46.7C293.049 47.516 294.309 48.188 295.797 48.716C297.309 49.22 298.821 49.472 300.333 49.472C302.205 49.472 303.597 49.172 304.509 48.572C305.445 47.972 305.913 47.18 305.913 46.196C305.913 45.476 305.649 44.888 305.121 44.432C304.617 43.952 303.969 43.58 303.177 43.316C302.385 43.052 301.305 42.752 299.937 42.416C298.017 41.96 296.457 41.504 295.257 41.048C294.081 40.592 293.061 39.884 292.197 38.924C291.357 37.94 290.937 36.62 290.937 34.964C290.937 33.572 291.309 32.312 292.053 31.184C292.821 30.032 293.961 29.12 295.473 28.448C297.009 27.776 298.881 27.44 301.089 27.44C302.625 27.44 304.137 27.632 305.625 28.016C307.113 28.4 308.397 28.952 309.477 29.672L308.001 33.308C306.897 32.66 305.745 32.168 304.545 31.832C303.345 31.496 302.181 31.328 301.053 31.328C299.205 31.328 297.825 31.64 296.913 32.264C296.025 32.888 295.581 33.716 295.581 34.748C295.581 35.468 295.833 36.056 296.337 36.512C296.865 36.968 297.525 37.328 298.317 37.592C299.109 37.856 300.189 38.156 301.557 38.492C303.429 38.924 304.965 39.38 306.165 39.86C307.365 40.316 308.385 41.024 309.225 41.984C310.089 42.944 310.521 44.24 310.521 45.872C310.521 47.264 310.137 48.524 309.369 49.652C308.625 50.78 307.485 51.68 305.949 52.352C304.413 53.024 302.541 53.36 300.333 53.36ZM319.922 31.76H311.57V27.8H332.954V31.76H324.602V53H319.922V31.76Z" fill="white"/>
<defs>
<linearGradient id="paint0_linear_611_11" x1="-2.80667" y1="85.8218" x2="108.603" y2="13.2354" gradientUnits="userSpaceOnUse">
<stop offset="0.14" stop-color="#3A9BEB"/>
<stop offset="0.23" stop-color="#5BC6F3"/>
<stop offset="0.4" stop-color="#6EE8FC"/>
<stop offset="0.63" stop-color="#8167F6"/>
<stop offset="0.92" stop-color="#D5088C"/>
<stop offset="1" stop-color="#A420AA"/>
</linearGradient>
</defs>
</svg>
